<svg width="203" height="101" viewBox="0 0 203 101" fill="none" xmlns="http://www.w3.org/2000/svg">
<path d="M74.7183 84.0215C63.7371 84.0215 58.1097 77.7066 57.8242 65.2167C57.8242 52.7966 63.3818 46.575 74.5726 46.3478C83.3517 46.3478 88.5539 50.2567 90.1501 58.1503H80.2118C79.1107 55.6803 77.1883 54.3754 74.3047 54.3754C69.5044 54.3754 67.1043 58.0105 67.1043 65.2167C67.1043 72.4229 69.6384 76.058 74.7183 75.9881C75.7691 75.9849 76.8063 75.7499 77.7559 75.2998C78.7055 74.8497 79.544 74.1955 80.2118 73.3841C80.6092 72.9663 81.0885 72.6348 81.6197 72.4103C82.1509 72.1858 82.7226 72.0731 83.2993 72.0792H90.1618C88.5131 79.4601 83.1595 84.1963 74.7183 84.0215Z" fill="#F16127"/>
<path d="M105.07 53.3851H104.108V73.489C104.108 75.0037 105 75.8192 106.782 75.8192H109.596V82.7516C106.399 83.0358 103.182 83.0124 99.9896 82.6817C96.5584 82.338 94.9098 80.2117 94.9797 76.1629V36.5027H99.7158C102.116 36.5027 104.108 38.6989 104.108 41.099V46.8663H109.596V48.8587C109.608 49.4563 109.499 50.0503 109.276 50.6048C109.052 51.1594 108.719 51.6631 108.297 52.0858C107.874 52.5085 107.37 52.8415 106.816 53.0648C106.261 53.288 105.667 53.397 105.07 53.3851V53.3851Z" fill="#932682"/>
<path d="M119.739 89.6199C124.749 89.6199 126.531 87.1499 125.092 82.3438L112.736 46.8663H123.129L130.335 72.0501L136.65 50.0937C137.198 47.9615 138.637 46.8663 140.973 46.8663H147.352L133.009 89.3462C130.813 95.3115 128.617 97.3737 121.073 97.3737C118.742 97.3737 117.502 97.3038 117.228 97.0999V89.6199H119.739Z" fill="#35BA9B"/>
<path d="M186.166 46.8664L173.35 83.1653H163.656L150.893 46.8664H160.994L168.334 72.324L174.649 50.0937C174.9 49.1198 175.483 48.264 176.298 47.6746C177.113 47.0853 178.108 46.7994 179.111 46.8664H186.166Z" fill="#407B3A"/>
<path d="M199 46.7381L198.563 46.5167H178.547V46.5808C177.641 46.6419 176.777 46.9865 176.077 47.5657C175.378 48.1449 174.879 48.9294 174.65 49.8082L164.082 83.305H174.02L185.409 51.2238L199 46.7381Z" fill="#B3D334"/>
<path d="M61.9312 17.3716L57.2708 12.0878L52.9424 17.4532L56.0823 3L61.9312 17.3716Z" fill="#F04D32"/>
<path d="M13.7954 67.9372C15.7702 66.9527 17.9082 65.8283 20.1102 64.5467C21.2171 63.9176 22.3239 63.2185 23.4716 62.5253C23.658 62.3971 23.8619 62.2748 24.0541 62.1466L28.0912 49.6974L31.5458 38.9493L36.0955 52.9306V53.0005C36.4159 52.7209 36.7363 52.418 37.0509 52.1558L38.6646 50.612L39.4685 49.8372L40.2433 49.0275L41.7929 47.4022C42.2997 46.8546 42.7716 46.2837 43.2667 45.7186C43.5871 45.3283 43.9308 44.9496 44.2629 44.5535L38.1927 27.6594H29.0058C26.2018 27.6594 24.3881 28.8925 23.5648 31.3586L9.83398 69.7722C11.0748 69.2421 12.3914 68.6246 13.7954 67.9372Z" fill="#ED2224"/>
<path d="M48.3106 56.822L47.6057 57.8822C47.1338 58.5871 46.6561 59.2978 46.1784 59.9969C45.1997 61.3776 44.2036 62.7524 43.1724 64.0748C42.3685 65.0768 41.5704 66.0846 40.749 67.0575L42.4443 72.2247H42.5083L45.9221 82.7689L46.1784 83.5496L46.2192 83.6719H58.3247L48.5611 56.4375L48.3106 56.822Z" fill="#ED2224"/>
<path d="M57.6725 16.5735C57.6725 15.5657 57.7016 14.6045 57.6084 13.7132C57.4162 11.9305 57.3463 10.3693 57.1132 9.10516L56.3792 5.1438C56.3792 5.1438 56.554 6.59436 56.8628 9.14012C57.0142 10.4101 56.9793 11.9713 57.0608 13.7481C57.1016 14.6394 56.9734 15.5948 56.9385 16.591C56.9136 17.6445 56.8202 18.6953 56.6589 19.7368C56.4841 20.8261 56.3734 21.9679 56.1287 23.1389C55.8841 24.3098 55.5462 25.5099 55.2782 26.7507C54.8879 27.9741 54.4801 29.2324 54.0723 30.514C53.5519 31.7723 53.0237 33.0578 52.4878 34.3705C51.8295 35.6463 51.2295 36.9629 50.5129 38.2561L49.3478 40.196C48.9807 40.8599 48.5781 41.5036 48.1419 42.1243C47.2797 43.4001 46.4467 44.6875 45.4564 45.9226C44.9728 46.5459 44.5126 47.1809 44.0174 47.7925L42.4679 49.6101C41.4717 50.8451 40.3066 51.9811 39.2289 53.1579C38.1511 54.3346 36.9452 55.424 35.7743 56.5134C34.6034 57.6027 33.4092 58.6688 32.1625 59.6708C31.545 60.1718 30.9508 60.6903 30.3391 61.1796C29.7274 61.669 29.0983 62.1467 28.4749 62.6185C27.269 63.5798 25.9816 64.4536 24.7815 65.3449C23.5815 66.2362 22.329 67.0576 21.1056 67.8266C18.688 69.4111 16.3228 70.8267 14.115 72.0909C11.9071 73.355 9.8565 74.4211 7.99233 75.3706L5.83105 81.6156C7.71853 80.6486 10.2177 79.3728 10.7362 79.0757C12.6236 78.0213 14.6975 76.7862 16.9287 75.3881C19.1599 73.99 21.5076 72.4113 23.9193 70.6636C25.1427 69.8073 26.3253 68.8635 27.5778 67.9373C28.8303 67.011 30.042 66.0032 31.242 64.9488L33.0771 63.3817C33.6596 62.8516 34.2422 62.2923 34.8714 61.7447C36.0947 60.6612 37.2307 59.4844 38.4075 58.3251C39.5842 57.1658 40.6736 55.9308 41.7746 54.7075C42.8756 53.4841 43.9475 52.22 44.9088 50.9092L46.3884 48.9635C46.8603 48.311 47.303 47.6353 47.7574 46.977C48.6954 45.6604 49.5051 44.2914 50.2857 42.9457C50.6964 42.2885 51.0717 41.6098 51.4101 40.9126C51.7654 40.231 52.1091 39.5494 52.4587 38.8795C53.1111 37.5221 53.6529 36.1415 54.2354 34.8016C54.7073 33.4442 55.1617 32.1044 55.6161 30.7936L56.6064 26.9138C56.8278 25.6439 57.0395 24.4088 57.2414 23.2088C57.4162 22.0437 57.4511 20.8786 57.5676 19.7484C57.668 18.6933 57.703 17.633 57.6725 16.5735V16.5735Z" fill="#F04D32"/>
<path d="M58.4649 21.3912C58.4459 20.3348 58.3642 19.2805 58.2203 18.2337C58.0863 17.2317 58.0455 16.2764 57.8591 15.4025C57.4746 13.6549 57.2474 12.1053 56.8862 10.8644C56.158 8.3944 55.7211 6.98462 55.7211 6.98462C55.7211 6.98462 56.0473 8.41188 56.6124 10.911C56.9037 12.1635 57.026 13.7189 57.2998 15.4724C57.4222 16.3521 57.4047 17.3075 57.4746 18.2978C57.5509 19.3427 57.5626 20.3914 57.5095 21.4378C57.4513 22.533 57.4571 23.6748 57.3348 24.8457C57.2124 26.0166 57.026 27.2458 56.8629 28.4925C56.5949 29.7314 56.3211 31.0053 56.0415 32.3141C55.6512 33.5957 55.2551 34.9122 54.8764 36.2463C54.3521 37.5629 53.8861 38.9086 53.3035 40.2426C52.9889 40.9067 52.6743 41.5767 52.3656 42.2466C52.0651 42.9309 51.7267 43.598 51.3519 44.2448C50.6238 45.5671 49.9189 46.907 49.0567 48.2003C48.6431 48.8469 48.2469 49.511 47.81 50.1518L46.4527 52.0684C45.5788 53.3559 44.5302 54.5676 43.5749 55.8084C42.6195 57.0493 41.5243 58.2202 40.464 59.3853C39.4038 60.5504 38.3144 61.7155 37.1784 62.77C36.5959 63.3117 36.0716 63.8652 35.5065 64.3953L33.788 65.9624C32.6811 67.0051 31.4577 67.9547 30.3684 68.9275C29.279 69.9004 28.0906 70.7917 26.943 71.6481C24.7001 73.3957 22.4748 74.9511 20.4009 76.3668C18.327 77.7824 16.3638 79.0116 14.5753 80.0602C12.7869 81.1088 11.2373 82 9.94986 82.7224L5.04476 85.2798C4.22919 87.913 3.501 90.249 3 91.851C4.3224 91.1869 6.49532 90.1034 9.90908 88.3557C10.445 88.0761 11.715 87.3304 13.0432 86.5265C14.3714 85.7226 15.956 84.7322 17.7037 83.5438C19.4513 82.3554 21.432 80.9864 23.5292 79.4659C25.6264 77.9455 27.7993 76.192 30.0305 74.287C31.1665 73.355 32.2558 72.3413 33.4035 71.3277C34.5511 70.314 35.6754 69.2421 36.7648 68.112L38.4367 66.4226C39.0193 65.84 39.5203 65.2575 40.0679 64.6749C41.1806 63.5098 42.1942 62.269 43.2545 61.034C44.3147 59.7989 45.2701 58.4998 46.2488 57.2066C47.2275 55.9133 48.1712 54.5909 48.9926 53.2219L50.2742 51.1888C50.6762 50.5072 51.049 49.8081 51.4393 49.1207C52.2433 47.7517 52.8899 46.3419 53.554 44.9496C53.8977 44.2622 54.1948 43.5573 54.4686 42.8525L55.3017 40.7553C55.8143 39.363 56.2104 37.959 56.659 36.6017C56.9852 35.2152 57.3115 33.8578 57.6261 32.5238C57.8241 31.1839 58.0222 29.8732 58.2086 28.6032C58.296 27.3274 58.3717 26.0866 58.4533 24.8807C58.5348 23.6748 58.4649 22.498 58.4649 21.3912Z" fill="#F04D32"/>
<path d="M181.219 37.3817H179.076V43.3254H178.201V37.3817H176.062V36.6582H181.219V37.3817Z" fill="black"/>
<path d="M183.343 36.6582L185.523 42.0982L187.703 36.6582H188.843V43.3254H187.964V40.729L188.046 37.9266L185.857 43.3254H185.184L183 37.9404L183.087 40.729V43.3254H182.208V36.6582H183.343Z" fill="black"/>
</svg>
