<svg width="189" height="189" viewBox="0 0 189 189" fill="none" xmlns="http://www.w3.org/2000/svg">
<rect y="7" width="189" height="175" rx="20" fill="#CFCEFF"/>
<path d="M135.844 98.8219V73.8281H106.312V98.8219C106.312 100.123 105.883 101.388 105.09 102.42C104.297 103.452 103.186 104.193 101.928 104.528L75.1688 111.665C71.3967 112.671 68.0623 114.895 65.6838 117.99C63.3053 121.086 62.0158 124.881 62.0156 128.785V180.141H180.141V128.785C180.14 124.881 178.851 121.086 176.472 117.99C174.094 114.895 170.76 112.671 166.987 111.665L140.228 104.529C138.971 104.194 137.859 103.453 137.066 102.42C136.273 101.388 135.844 100.123 135.844 98.8219Z" fill="#FEC9A3"/>
<path d="M127.491 106.312C131.193 106.305 134.822 105.278 137.978 103.344C137.312 102.793 136.776 102.102 136.407 101.321C136.038 100.539 135.846 99.6861 135.844 98.8219V73.8281H106.313V98.8219C106.31 99.6861 106.118 100.539 105.749 101.321C105.38 102.102 104.844 102.793 104.178 103.344C107.335 105.278 110.963 106.305 114.665 106.312H127.491Z" fill="#FEB784"/>
<path d="M166.987 111.665L141.27 104.806C140.268 109.416 137.718 113.544 134.045 116.505C130.372 119.465 125.796 121.08 121.078 121.08C116.36 121.08 111.785 119.465 108.111 116.505C104.438 113.544 101.888 109.416 100.886 104.806L75.1688 111.665C71.3967 112.671 68.0623 114.895 65.6838 117.99C63.3053 121.086 62.0158 124.881 62.0156 128.785V180.141H180.141V128.785C180.14 124.881 178.851 121.086 176.472 117.99C174.094 114.895 170.76 112.671 166.987 111.665Z" fill="#C7AE71"/>
<path d="M62.0156 141.75H85.6406V180.141H62.0156V141.75Z" fill="#FEC9A3"/>
<path d="M156.516 141.75H180.141V180.141H156.516V141.75Z" fill="#FEB784"/>
<path d="M20.6719 168.328H124.031V180.141H20.6719V168.328Z" fill="#C7C7C5"/>
<path d="M89.2102 180.141H26.0946C24.6954 180.14 23.3309 179.706 22.1891 178.897C21.0473 178.089 20.1844 176.946 19.7195 175.626C19.6272 175.372 19.552 175.111 19.4943 174.847L8.98488 127.553C8.90244 127.174 8.86037 126.788 8.85938 126.401C8.85879 125.702 8.99608 125.009 9.26338 124.363C9.53068 123.717 9.92275 123.13 10.4172 122.636C10.9116 122.141 11.4986 121.749 12.1447 121.482C12.7907 121.215 13.4832 121.078 14.1824 121.078H80.0888C81.654 121.078 83.1709 121.62 84.3816 122.612C85.5923 123.604 86.422 124.985 86.7296 126.519L87.6488 131.126L95.8363 172.056C96.0325 173.037 96.0088 174.049 95.7667 175.019C95.5246 175.989 95.0703 176.893 94.4364 177.667C93.8026 178.44 93.005 179.063 92.1013 179.491C91.1975 179.919 90.2101 180.141 89.2102 180.141Z" fill="#E0E0DE"/>
<path d="M54.7204 154.798C56.8772 152.541 56.6276 148.802 54.163 146.447C51.6983 144.091 47.9519 144.011 45.7951 146.268C43.6383 148.524 43.8879 152.263 46.3525 154.619C48.8172 156.975 52.5636 157.055 54.7204 154.798Z" fill="#EBEBE9"/>
<path d="M162.422 180.141H138.797L135.844 141.75H165.375L162.422 180.141Z" fill="#D6D6D4"/>
<path d="M136.752 153.562L137.888 168.328H163.33L164.467 153.562H136.752Z" fill="#95573A"/>
<path d="M156.516 100.406V103.359C151.816 103.359 147.309 105.226 143.987 108.549C140.664 111.872 138.797 116.379 138.797 121.078V129.938H162.422V124.031C162.422 122.465 163.044 120.963 164.152 119.855C165.259 118.747 166.762 118.125 168.328 118.125C169.895 118.125 171.397 117.503 172.504 116.395C173.612 115.287 174.234 113.785 174.234 112.219V109.266C174.234 106.916 175.168 104.663 176.829 103.001C178.491 101.34 180.744 100.406 183.094 100.406V73.8281C176.045 73.8281 169.285 76.6283 164.3 81.6127C159.316 86.597 156.516 93.3573 156.516 100.406Z" fill="#EBEBE9"/>
<path d="M156.516 153.562H180.141V180.141H156.516C154.949 180.141 153.447 179.518 152.339 178.411C151.232 177.303 150.609 175.801 150.609 174.234V159.469C150.609 157.902 151.232 156.4 152.339 155.292C153.447 154.185 154.949 153.562 156.516 153.562Z" fill="#FEC9A3"/>
<path d="M150.609 44.2969H147.656V62.0156H150.609C152.959 62.0156 155.212 61.0822 156.874 59.4208C158.535 57.7593 159.469 55.5059 159.469 53.1562C159.469 50.8066 158.535 48.5532 156.874 46.8917C155.212 45.2303 152.959 44.2969 150.609 44.2969Z" fill="#FEB784"/>
<path d="M91.6945 44.2969H91.5469C89.1972 44.2969 86.9438 45.2303 85.2823 46.8917C83.6209 48.5532 82.6875 50.8066 82.6875 53.1562C82.6875 55.5059 83.6209 57.7593 85.2823 59.4208C86.9438 61.0822 89.1972 62.0156 91.5469 62.0156H94.5V44.2969H91.6945Z" fill="#FEB784"/>
<path d="M121.078 94.5C114.029 94.5 107.269 91.6998 102.285 86.7154C97.3002 81.7311 94.5 74.9708 94.5 67.9219V41.3438C94.5 34.2948 97.3002 27.5345 102.285 22.5502C107.269 17.5658 114.029 14.7656 121.078 14.7656C128.127 14.7656 134.887 17.5658 139.872 22.5502C144.856 27.5345 147.656 34.2948 147.656 41.3438V67.9219C147.656 74.9708 144.856 81.7311 139.872 86.7154C134.887 91.6998 128.127 94.5 121.078 94.5Z" fill="#FEC9A3"/>
<path d="M121.078 14.7656C119.09 14.7713 117.109 14.9999 115.172 15.4471C121.041 16.7837 126.283 20.0738 130.039 24.7786C133.794 29.4833 135.841 35.3239 135.844 41.3437V67.9219C135.841 73.9417 133.794 79.7823 130.039 84.4871C126.283 89.1918 121.041 92.4819 115.172 93.8186C119.064 94.7186 123.109 94.7273 127.005 93.8442C130.901 92.9612 134.547 91.209 137.671 88.7188C140.795 86.2286 143.315 83.0647 145.044 79.4634C146.773 75.8621 147.666 71.9167 147.656 67.9219V41.3437C147.656 34.2948 144.856 27.5345 139.872 22.5502C134.887 17.5658 128.127 14.7656 121.078 14.7656Z" fill="#FEC093"/>
<path d="M107.789 53.1562C110.236 53.1562 112.219 51.173 112.219 48.7266C112.219 46.2801 110.236 44.2969 107.789 44.2969C105.343 44.2969 103.359 46.2801 103.359 48.7266C103.359 51.173 105.343 53.1562 107.789 53.1562Z" fill="#7A432A"/>
<path d="M134.367 53.1562C136.814 53.1562 138.797 51.173 138.797 48.7266C138.797 46.2801 136.814 44.2969 134.367 44.2969C131.921 44.2969 129.938 46.2801 129.938 48.7266C129.938 51.173 131.921 53.1562 134.367 53.1562Z" fill="#7A432A"/>
<path d="M115.172 64.9687H126.984V59.0625H119.269L123.881 45.2311L118.277 43.3625L112.371 61.0813C112.223 61.5252 112.182 61.9979 112.253 62.4605C112.323 62.9231 112.503 63.3623 112.776 63.742C113.05 64.1216 113.41 64.4308 113.826 64.6441C114.243 64.8574 114.704 64.9686 115.172 64.9687Z" fill="#F7A468"/>
<path d="M94.5 44.2969L104.559 59.3855C105.098 60.1946 105.829 60.8579 106.686 61.3167C107.544 61.7756 108.501 62.0156 109.473 62.0156H132.683C133.655 62.0156 134.612 61.7756 135.47 61.3167C136.327 60.8579 137.058 60.1946 137.597 59.3855L147.656 44.2969V80.2412C147.656 82.8893 147.135 85.5115 146.121 87.958C145.108 90.4046 143.623 92.6275 141.75 94.5C139.878 96.3725 137.655 97.8579 135.208 98.8713C132.761 99.8847 130.139 100.406 127.491 100.406H114.665C112.017 100.406 109.395 99.8847 106.948 98.8713C104.502 97.8579 102.279 96.3725 100.406 94.5C98.5337 92.6275 97.0484 90.4046 96.035 87.958C95.0216 85.5115 94.5 82.8893 94.5 80.2412V44.2969Z" fill="#7A432A"/>
<path d="M137.597 59.3855C137.135 60.0574 136.538 60.6255 135.844 61.0536V80.2412C135.844 85.5893 133.719 90.7184 129.938 94.5C126.156 98.2817 121.027 100.406 115.679 100.406H127.491C132.839 100.406 137.968 98.2817 141.75 94.5C145.532 90.7184 147.656 85.5893 147.656 80.2412V44.2969L137.597 59.3855Z" fill="#743B20"/>
<path d="M129.081 68.0488C125.64 69.086 122.064 69.6103 118.47 69.6048H112.219V75.511H118.47C122.644 75.5169 126.797 74.9074 130.794 73.7022L129.081 68.0488Z" fill="#FEC9A3"/>
<path d="M103.359 35.4375H146.975C146.154 31.8474 144.596 28.4669 142.401 25.5103C140.205 22.5537 137.419 20.0853 134.22 18.2618C132.82 17.9066 131.382 17.7242 129.937 17.7188H108.94C103.127 20.7149 98.6194 25.7454 96.2767 31.8513C97.0948 32.961 98.1617 33.8635 99.3917 34.4863C100.622 35.1091 101.981 35.4349 103.359 35.4375Z" fill="#FEC093"/>
<path d="M94.5 44.2969V29.5312C94.5 19.7453 101.111 14.7656 109.266 14.7656L108.746 16.6364C105.851 27.058 100.974 36.5287 94.5 44.2969Z" fill="#95573A"/>
<path d="M147.656 44.2969V26.5781C147.656 16.7922 141.045 14.7656 132.891 14.7656L133.41 16.6361C136.305 27.058 141.183 36.5287 147.656 44.2969Z" fill="#95573A"/>
<path d="M147.656 29.5312H103.359C101.01 29.5312 98.7563 28.5979 97.0949 26.9364C95.4334 25.2749 94.5 23.0215 94.5 20.6719V11.8125H132.891C136.807 11.8125 140.562 13.3682 143.331 16.1373C146.101 18.9063 147.656 22.662 147.656 26.5781V29.5312Z" fill="#7A432A"/>
<path d="M132.891 11.8125H121.078C124.994 11.8125 128.75 13.3682 131.519 16.1373C134.288 18.9063 135.844 22.662 135.844 26.5781V29.5312H147.656V26.5781C147.656 22.662 146.101 18.9063 143.331 16.1373C140.562 13.3682 136.807 11.8125 132.891 11.8125Z" fill="#743B20"/>
<path d="M164.921 147.656L165.375 141.75H135.844L136.298 147.656H164.921Z" fill="#C7C7C5"/>
<path d="M132.891 129.938H168.328V141.75H132.891V129.938Z" fill="#7A432A"/>
<path d="M156.516 129.938H168.328V141.75H156.516V129.938Z" fill="#743B20"/>
<path d="M146.787 106.276C144.331 107.886 142.315 110.082 140.92 112.667C139.525 115.251 138.796 118.141 138.797 121.078V129.937H162.422V124.031C162.422 122.465 163.044 120.962 164.152 119.855C165.259 118.747 166.762 118.125 168.328 118.125C169.389 118.122 170.43 117.833 171.34 117.287C172.249 116.741 172.995 115.959 173.496 115.024C171.587 113.46 169.369 112.315 166.989 111.663L146.787 106.276Z" fill="#D4BD81"/>
<path d="M89.2102 180.141H26.0946C24.6954 180.14 23.3309 179.706 22.1891 178.897C21.0473 178.089 20.1844 176.946 19.7195 175.626C43.817 168.04 70.3028 154.663 87.6488 131.126L95.8363 172.057C96.0325 173.037 96.0088 174.049 95.7667 175.019C95.5246 175.989 95.0703 176.893 94.4364 177.667C93.8026 178.44 93.005 179.063 92.1013 179.491C91.1975 179.919 90.2101 180.141 89.2102 180.141Z" fill="#D6D6D4"/>
</svg>
