<svg width="45" height="45" viewBox="0 0 45 45" fill="none" xmlns="http://www.w3.org/2000/svg">
<g clip-path="url(#clip0)">
<path d="M25.8917 22.504L3.29372 44.2642C2.23549 43.541 1.6072 42.3381 1.61831 41.0564V3.95152C1.6072 2.66985 2.23549 1.4669 3.29372 0.743698L25.8917 22.504Z" fill="#7DC1F8"/>
<path d="M33.7989 14.9032L25.8916 22.504L3.2937 0.743697C3.37885 0.677708 3.46753 0.616315 3.55929 0.559808C4.75361 -0.164066 6.24542 -0.187436 7.46187 0.498511L33.7989 14.9032Z" fill="#90F094"/>
<path d="M43.3816 22.504C43.3964 23.9509 42.6102 25.2873 41.3385 25.9775L33.799 30.1047L25.8917 22.504L33.799 14.9032L41.3385 19.0305C42.6102 19.7206 43.3964 21.0571 43.3816 22.504Z" fill="#FEE392"/>
<path d="M33.7989 30.1047L7.46187 44.5094C6.24274 45.1847 4.75658 45.1614 3.55929 44.4481C3.46753 44.3916 3.37885 44.3302 3.2937 44.2642L25.8917 22.504L33.7989 30.1047Z" fill="#EE6258"/>
</g>
<defs>
<clipPath id="clip0">
<rect width="45" height="45" fill="white"/>
</clipPath>
</defs>
</svg>
