<svg width="193" height="193" viewBox="0 0 193 193" fill="none" xmlns="http://www.w3.org/2000/svg">
<path d="M130.84 49.693C130.032 49.693 129.285 49.1698 129.037 48.3571C125.088 35.3922 116.56 27.0148 107.31 27.0148H85.977C76.7273 27.0148 68.1991 35.3922 64.2501 48.3571C63.9471 49.353 62.8946 49.9139 61.898 49.6108C60.902 49.3078 60.3411 48.2546 60.6442 47.2587C65.0877 32.6713 75.0318 23.2452 85.977 23.2452H107.31C118.255 23.2452 128.199 32.6706 132.643 47.2587C132.946 48.2546 132.385 49.3078 131.389 49.6108C131.207 49.6666 131.021 49.693 130.84 49.693Z" fill="#E0E0E0"/>
<path d="M79.5477 49.693C79.4534 49.693 79.3577 49.6855 79.2619 49.6712C78.2329 49.5144 77.5257 48.5531 77.6825 47.524C79.9978 32.3215 85.0926 23.2452 91.3109 23.2452H101.978C108.196 23.2452 113.29 32.3215 115.606 47.524L111.88 48.0917C109.773 34.2545 105.303 27.0148 101.979 27.0148H91.3116C87.9861 27.0148 83.5177 34.2545 81.4106 48.0917C81.2666 49.0243 80.4629 49.693 79.5477 49.693Z" fill="#E0E0E0"/>
<path d="M96.644 49.6931C95.6028 49.6931 94.7592 48.8495 94.7592 47.8084V25.1309C94.7592 24.0897 95.6028 23.2461 96.644 23.2461C97.6851 23.2461 98.5287 24.0897 98.5287 25.1309V47.8084C98.5287 48.8488 97.6851 49.6931 96.644 49.6931Z" fill="#E0E0E0"/>
<path d="M73.9778 85.3874C73.9778 85.8036 74.0343 86.2054 74.1399 86.5884H89.6425C89.748 86.2062 89.8046 85.8036 89.8046 85.3874C89.8046 84.0575 89.2286 82.8619 88.3133 82.0363C88.5591 81.5659 88.6971 81.0314 88.6971 80.4644C88.6971 78.5849 87.1734 77.0613 85.2939 77.0613C85.2856 77.0613 85.2773 77.0613 85.2691 77.0613C85.0655 75.3763 83.6301 74.0706 81.8908 74.0706C80.1508 74.0706 78.7161 75.3763 78.5125 77.0613C78.5043 77.0613 78.496 77.0613 78.4877 77.0613C76.6082 77.0613 75.0845 78.5849 75.0845 80.4644C75.0845 81.0314 75.2232 81.5666 75.469 82.0363C74.5538 82.8619 73.9778 84.0575 73.9778 85.3874Z" fill="#E8505B"/>
<path d="M83.8201 104.542H79.9623C78.9913 104.542 78.1793 103.804 78.0858 102.837L76.5418 86.7686C76.4913 86.2393 76.6662 85.7138 77.0228 85.3211C77.3802 84.9283 77.8868 84.7036 78.4183 84.7036H85.3633C85.8948 84.7036 86.4014 84.9275 86.7588 85.3211C87.1161 85.7138 87.291 86.2401 87.2398 86.7686L85.6958 102.837C85.603 103.804 84.7911 104.542 83.8201 104.542ZM81.6744 100.772H82.1072L83.2886 88.4731H80.4923L81.6744 100.772Z" fill="#E0E0E0"/>
<path d="M124.044 87.7004C123.087 87.7087 122.174 87.9002 121.34 88.2455C121.208 87.6333 121.002 87.0264 120.718 86.4368C118.774 82.3921 113.919 80.6906 109.875 82.6349C107.716 83.673 106.224 85.5412 105.599 87.6725C104.644 87.6408 103.667 87.8331 102.746 88.2756C102.531 88.3797 102.324 88.4942 102.126 88.6194C101.08 88.0321 99.8737 87.6974 98.5891 87.6974C97.9988 87.6974 97.4273 87.7758 96.8777 87.9092V101.967C96.9463 101.984 97.0134 102.005 97.0828 102.02C97.0948 102.233 97.1212 102.445 97.1559 102.657H124.044V87.7004Z" fill="#E0E0E0"/>
<path d="M163.559 129.799C163.539 129.799 163.518 129.799 163.498 129.799C163.538 129.312 163.559 128.819 163.559 128.32C163.559 118.519 155.613 110.573 145.812 110.573C144.35 110.573 142.93 110.749 141.572 111.082V129.993C142.752 131.009 143.547 133.202 143.896 134.263C144.631 136.494 144.856 138.859 144.972 141.205C145.101 143.805 145.102 146.437 144.535 148.976C143.953 151.587 142.565 153.23 141.271 155.412C139.954 157.635 138.319 159.625 136.312 161.263C138.839 164.57 143.091 165.293 147.019 165.293C150.005 165.293 152.819 164.556 155.288 163.253C157.758 164.556 160.571 165.293 163.558 165.293C173.359 165.293 181.305 157.348 181.305 147.546C181.306 137.745 173.361 129.799 163.559 129.799Z" fill="#E0E0E0"/>
<path d="M49.8656 163.802C45.1251 163.069 40.8052 159.87 38.8458 155.492C36.8856 151.114 37.4088 145.687 40.2774 141.843C43.0692 138.101 47.2503 136.71 51.6396 136.646V111.082C50.281 110.749 48.8607 110.573 47.3996 110.573C37.5981 110.573 29.6519 118.519 29.6519 128.32C29.6519 128.819 29.673 129.312 29.713 129.799C29.6926 129.799 29.6722 129.799 29.6519 129.799C19.8504 129.799 11.9042 137.745 11.9042 147.547C11.9042 157.349 19.8496 165.294 29.6519 165.294C32.6381 165.294 35.4524 164.557 37.9215 163.254C40.3913 164.557 43.2049 165.294 46.1911 165.294C48.0917 165.294 49.9222 164.995 51.6388 164.442V163.966C51.0462 163.947 50.4537 163.893 49.8656 163.802Z" fill="#E0E0E0"/>
<path d="M51.7157 110.573H141.572V121.675H51.7157V110.573Z" fill="#E0E0E0"/>
<path d="M159.796 177.059H32.9985C31.312 177.059 29.9452 175.692 29.9452 174.005C29.9452 172.319 31.312 170.952 32.9985 170.952H159.796C161.482 170.952 162.849 172.319 162.849 174.005C162.849 175.691 161.482 177.059 159.796 177.059Z" fill="#E0E0E0"/>
<path d="M51.7157 155.859C54.6361 155.859 57.0036 153.491 57.0036 150.571C57.0036 147.65 54.6361 145.283 51.7157 145.283C48.7953 145.283 46.4278 147.65 46.4278 150.571C46.4278 153.491 48.7953 155.859 51.7157 155.859Z" fill="#E0E0E0"/>
<path d="M53.899 63.8491C51.2581 63.8491 49.117 61.708 49.117 59.0671V47.8082H58.681V59.0678C58.6803 61.708 56.5399 63.8491 53.899 63.8491Z" fill="#E0E0E0"/>
<path d="M70.9969 63.8491C68.3559 63.8491 66.2148 61.708 66.2148 59.0671V47.8082H75.7789V59.0678C75.7789 61.708 73.6378 63.8491 70.9969 63.8491Z" fill="#E0E0E0"/>
<path d="M88.0947 63.8491C85.4538 63.8491 83.3127 61.708 83.3127 59.0671V47.8082H92.8767V59.0678C92.8767 61.708 90.7356 63.8491 88.0947 63.8491Z" fill="#E0E0E0"/>
<path d="M105.193 63.8491C102.552 63.8491 100.411 61.708 100.411 59.0671V47.8082H109.975V59.0678C109.975 61.708 107.834 63.8491 105.193 63.8491Z" fill="#E0E0E0"/>
<path d="M122.291 63.8491C119.65 63.8491 117.509 61.708 117.509 59.0671V47.8082H127.073V59.0678C127.073 61.708 124.932 63.8491 122.291 63.8491Z" fill="#E0E0E0"/>
<path d="M139.389 63.8491C136.748 63.8491 134.607 61.708 134.607 59.0671V47.8082H144.171V59.0678C144.171 61.708 142.031 63.8491 139.389 63.8491Z" fill="#E0E0E0"/>
<path d="M98.3056 143.478C98.3056 144.519 97.462 145.363 96.4208 145.363H70.1133C69.0721 145.363 68.2285 144.519 68.2285 143.478C68.2285 142.437 69.0721 141.594 70.1133 141.594H96.4208C97.462 141.594 98.3056 142.437 98.3056 143.478ZM147.314 143.061C147.314 155.892 136.875 166.331 124.044 166.331C111.213 166.331 100.774 155.892 100.774 143.061C100.774 130.229 111.213 119.791 124.044 119.791C136.875 119.791 147.314 130.23 147.314 143.061ZM143.545 143.061C143.545 132.308 134.796 123.56 124.044 123.56C113.292 123.56 104.543 132.308 104.543 143.061C104.543 153.813 113.292 162.561 124.044 162.561C134.796 162.561 143.545 153.813 143.545 143.061ZM132.988 143.061C132.988 147.992 128.975 152.004 124.044 152.004C119.113 152.004 115.1 147.992 115.1 143.061C115.1 138.129 119.113 134.117 124.044 134.117C128.975 134.117 132.988 138.129 132.988 143.061ZM129.218 143.061C129.218 140.207 126.897 137.887 124.044 137.887C121.191 137.887 118.87 140.208 118.87 143.061C118.87 145.913 121.191 148.235 124.044 148.235C126.897 148.235 129.218 145.914 129.218 143.061ZM67.4754 150.571C67.4754 159.261 60.406 166.331 51.7157 166.331C43.0254 166.331 35.9561 159.261 35.9561 150.571C35.9561 141.881 43.0254 134.811 51.7157 134.811C60.406 134.811 67.4754 141.881 67.4754 150.571ZM63.7058 150.571C63.7058 143.959 58.3267 138.581 51.7157 138.581C45.104 138.581 39.7256 143.96 39.7256 150.571C39.7256 157.182 45.1047 162.561 51.7157 162.561C58.3275 162.561 63.7058 157.182 63.7058 150.571ZM154.78 91.7483C144.66 94.3847 143.469 99.233 143.457 102.654V102.657V120.589C143.457 121.63 142.613 122.474 141.572 122.474C140.531 122.474 139.688 121.63 139.688 120.589V104.541H132.926H124.42H124.044H96.877H88.4332H75.3484H66.9047H58.3983H53.6005V129.97C53.6005 131.011 52.7569 131.855 51.7157 131.855C50.6746 131.855 49.8309 131.011 49.8309 129.97V102.657C49.8309 101.615 50.6746 100.772 51.7157 100.772H56.5136V69.6701C55.676 69.8873 54.803 70.0154 53.8983 70.0154C48.1452 70.0154 43.4642 65.3352 43.4642 59.5814V47.8084C43.4642 47.8001 43.4665 47.7925 43.4665 47.7842C43.4672 47.7111 43.4793 47.638 43.4883 47.5641C43.4951 47.5121 43.4974 47.4578 43.5087 47.4073C43.52 47.356 43.5404 47.3063 43.5562 47.2557C43.578 47.1849 43.5976 47.114 43.6271 47.0477C43.6301 47.0401 43.6316 47.0326 43.6346 47.025C50.235 32.5802 64.7613 23.2461 80.6431 23.2461H112.643C128.525 23.2461 143.051 32.5802 149.652 47.025C149.656 47.0326 149.656 47.0401 149.659 47.0477C149.689 47.1148 149.708 47.1856 149.73 47.2565C149.746 47.307 149.767 47.3568 149.777 47.4073C149.788 47.4585 149.791 47.5121 149.797 47.5641C149.807 47.6372 149.819 47.7104 149.819 47.7842C149.819 47.7925 149.822 47.8001 149.822 47.8084V59.5814C149.822 65.3344 145.141 70.0154 139.388 70.0154C137.745 70.0154 136.195 69.6226 134.81 68.9426V100.773H139.819C140.612 94.5837 145.305 90.3211 153.828 88.1009C154.836 87.84 155.865 88.4431 156.127 89.4496C156.391 90.4568 155.787 91.4859 154.78 91.7483ZM146.054 49.6931H132.725V59.5814C132.725 63.2559 135.714 66.2459 139.39 66.2459C143.064 66.2459 146.054 63.2566 146.054 59.5814V49.6931ZM48.4219 45.9236H62.4483H79.5462H96.644H113.743H130.84H144.866C138.389 34.3481 126.051 27.0156 112.644 27.0156H80.6439C67.2379 27.0149 54.8987 34.3481 48.4219 45.9236ZM122.535 70.0026C122.453 70.0041 122.374 70.0147 122.291 70.0147C118.755 70.0147 115.63 68.243 113.743 65.5448C111.855 68.243 108.729 70.0147 105.193 70.0147C101.657 70.0147 98.5325 68.243 96.644 65.5448C94.7562 68.243 91.6305 70.0147 88.0955 70.0147C84.5596 70.0147 81.4339 68.243 79.5462 65.5448C77.6584 68.243 74.5327 70.0147 70.9969 70.0147C70.2392 70.0147 69.5019 69.9287 68.7902 69.7749V100.772H73.1244L70.8114 86.8976C70.7202 86.3511 70.874 85.7924 71.2321 85.3695C71.5902 84.9465 72.1164 84.703 72.6705 84.703H91.1126C91.6667 84.703 92.1929 84.9465 92.5511 85.3695C92.9092 85.7924 93.063 86.3511 92.9717 86.8976L90.6587 100.772H94.9922V74.0714C94.9922 73.0303 95.8358 72.1867 96.877 72.1867H122.535V70.0026ZM75.4758 91.9564H88.3066L88.8871 88.4725H74.8946L75.4758 91.9564ZM64.3323 59.5814C64.3323 63.2559 67.3216 66.2459 70.9961 66.2459C74.6714 66.2459 77.6606 63.2566 77.6606 59.5814V49.6931H64.3323V59.5814ZM81.4309 59.5814C81.4309 63.2559 84.4202 66.2459 88.0955 66.2459C91.77 66.2459 94.7592 63.2566 94.7592 59.5814V49.6931H81.4309V59.5814ZM98.5288 59.5814C98.5288 63.2559 101.518 66.2459 105.193 66.2459C108.869 66.2459 111.858 63.2566 111.858 59.5814V49.6931H98.5288V59.5814ZM128.956 59.5814V49.6931H115.627V59.5814C115.627 63.2559 118.617 66.2459 122.291 66.2459C125.966 66.2459 128.956 63.2559 128.956 59.5814ZM53.899 66.2459C57.5743 66.2459 60.5636 63.2566 60.5636 59.5814V49.6931H47.2345V59.5814C47.2345 63.2559 50.2237 66.2459 53.899 66.2459ZM65.0207 100.773V68.1209C64.0202 67.4182 63.1495 66.5467 62.4483 65.5448C61.8452 66.4072 61.1139 67.1702 60.2839 67.8148V100.772H65.0207V100.773ZM86.8372 100.773L87.6786 95.7266H76.1046L76.9459 100.773H86.8372ZM122.159 100.773V75.9562H98.7617V100.773H122.159ZM131.042 100.773V65.9956C131.042 65.9413 131.053 65.8893 131.058 65.8358C130.984 65.7393 130.91 65.6443 130.84 65.5455C129.712 67.1589 128.143 68.4413 126.305 69.2102V100.773H131.042Z" fill="#999999"/>
</svg>
