<svg width="50" height="50" viewBox="0 0 50 50" fill="none" xmlns="http://www.w3.org/2000/svg">
<circle cx="25" cy="25" r="25" fill="#0077B5"/>
<g clip-path="url(#clip0)">
<path d="M35.8119 35.8173V35.8164H35.8173V27.8819C35.8173 24.0003 34.9817 21.0103 30.4438 21.0103C28.2623 21.0103 26.7984 22.2074 26.2007 23.3423H26.1376V21.3726H21.835V35.8164H26.3152V28.6644C26.3152 26.7813 26.6722 24.9604 29.0042 24.9604C31.302 24.9604 31.3362 27.1094 31.3362 28.7852V35.8173H35.8119Z" fill="white"/>
<path d="M14.5397 21.3735H19.0253V35.8173H14.5397V21.3735Z" fill="white"/>
<path d="M16.7806 14.1826C15.3464 14.1826 14.1827 15.3464 14.1827 16.7806C14.1827 18.2148 15.3464 19.4029 16.7806 19.4029C18.2148 19.4029 19.3786 18.2148 19.3786 16.7806C19.3777 15.3464 18.2139 14.1826 16.7806 14.1826V14.1826Z" fill="white"/>
</g>
<defs>
<clipPath id="clip0">
<rect x="14.1827" y="14.1826" width="21.6346" height="21.6346" fill="white"/>
</clipPath>
</defs>
</svg>
