<svg width="198" height="63" viewBox="0 0 198 63" fill="none" xmlns="http://www.w3.org/2000/svg">
<path d="M81.6946 53.7474C74.5451 53.7474 70.8813 49.6364 70.6954 41.5053C70.6954 33.4197 74.3138 29.3693 81.5998 29.2214C87.3155 29.2214 90.7025 31.7661 91.7417 36.905H85.2712C84.5543 35.297 83.3027 34.4474 81.4253 34.4474C78.3 34.4474 76.7374 36.814 76.7374 41.5053C76.7374 46.1966 78.3872 48.5631 81.6946 48.5176C82.3788 48.5155 83.054 48.3625 83.6723 48.0695C84.2905 47.7765 84.8365 47.3506 85.2712 46.8223C85.53 46.5503 85.842 46.3345 86.1879 46.1884C86.5337 46.0422 86.9059 45.9689 87.2814 45.9728H91.7493C90.6759 50.7779 87.1904 53.8612 81.6946 53.7474Z" fill="#F16127"/>
<path d="M101.454 33.8012H100.829V46.889C100.829 47.8751 101.409 48.406 102.569 48.406H104.401V52.9191C102.32 53.1041 100.226 53.0888 98.147 52.8736C95.913 52.6498 94.8397 51.2655 94.8852 48.6298V22.8105H97.9687C99.5314 22.8105 100.829 24.2403 100.829 25.8028V29.5574H104.401V30.8544C104.409 31.2435 104.338 31.6302 104.193 31.9912C104.047 32.3522 103.831 32.6801 103.555 32.9553C103.28 33.2305 102.952 33.4473 102.591 33.5926C102.23 33.738 101.843 33.8089 101.454 33.8012Z" fill="#932682"/>
<path d="M111.005 57.3921C114.267 57.3921 115.428 55.7841 114.491 52.6552L106.447 29.5587H113.213L117.905 45.9538L122.016 31.6597C122.373 30.2716 123.309 29.5587 124.83 29.5587H128.983L119.645 57.2139C118.216 61.0974 116.786 62.44 111.874 62.44C110.357 62.44 109.549 62.3945 109.371 62.2617V57.3921H111.005Z" fill="#35BA9B"/>
<path d="M154.248 29.5577L145.904 53.1888H139.593L131.283 29.5577H137.859L142.638 46.131L146.75 31.6587C146.913 31.0247 147.292 30.4676 147.823 30.0839C148.354 29.7002 149.002 29.5141 149.655 29.5577H154.248Z" fill="#407B3A"/>
<path d="M162.604 29.4731L162.319 29.329H149.287V29.3707C148.697 29.4105 148.135 29.6348 147.679 30.0119C147.224 30.3889 146.899 30.8996 146.75 31.4717L139.869 53.2786H146.34L153.755 32.3933L162.604 29.4731Z" fill="#B3D334"/>
<path d="M73.3699 10.3562L70.3357 6.91635L67.5176 10.4093L69.562 1L73.3699 10.3562Z" fill="#F04D32"/>
<path d="M42.0359 43.2756C43.3216 42.6346 44.7136 41.9027 46.1473 41.0683C46.8679 40.6587 47.5885 40.2036 48.3357 39.7523C48.4571 39.6689 48.5898 39.5892 48.715 39.5058L51.3434 31.4012L53.5925 24.404L56.5547 33.5061V33.5516C56.7633 33.3695 56.9719 33.1723 57.1767 33.0016L58.2273 31.9966L58.7507 31.4922L59.2551 30.9651L60.264 29.907C60.594 29.5505 60.9012 29.1788 61.2236 28.8109C61.4322 28.5568 61.656 28.3103 61.8721 28.0524L57.9201 17.0541H51.9388C50.1132 17.0541 48.9324 17.8569 48.3964 19.4624L39.4568 44.4702C40.2647 44.1251 41.1218 43.7231 42.0359 43.2756Z" fill="#ED2224"/>
<path d="M64.5006 36.0386L64.0416 36.7289C63.7344 37.1878 63.4234 37.6504 63.1124 38.1055C62.4752 39.0044 61.8266 39.8994 61.1553 40.7603C60.6319 41.4126 60.1123 42.0687 59.5775 42.702L60.6812 46.066H60.7229L62.9455 52.9304L63.1124 53.4386L63.139 53.5182H71.0204L64.6637 35.7883L64.5006 36.0386Z" fill="#ED2224"/>
<path d="M70.5876 9.83614C70.5876 9.18004 70.6066 8.55428 70.5459 7.97403C70.4207 6.81352 70.3752 5.79713 70.2235 4.97416L69.7456 2.39526C69.7456 2.39526 69.8594 3.3396 70.0604 4.99692C70.159 5.82368 70.1363 6.84007 70.1894 7.99678C70.2159 8.57703 70.1325 9.199 70.1097 9.84752C70.0935 10.5334 70.0327 11.2175 69.9277 11.8955C69.8139 12.6047 69.7418 13.348 69.5825 14.1103C69.4232 14.8726 69.2032 15.6538 69.0288 16.4616C68.7746 17.2581 68.5092 18.0772 68.2437 18.9116C67.9048 19.7308 67.5609 20.5677 67.212 21.4222C66.7834 22.2528 66.3928 23.1099 65.9262 23.9518L65.1677 25.2147C64.9287 25.6469 64.6666 26.066 64.3826 26.47C63.8212 27.3006 63.2789 28.1387 62.6341 28.9428C62.3193 29.3486 62.0197 29.7619 61.6973 30.1601L60.6884 31.3434C60.0398 32.1474 59.2812 32.8869 58.5796 33.653C57.8779 34.4191 57.0928 35.1283 56.3304 35.8375C55.5681 36.5467 54.7906 37.2407 53.9789 37.8931C53.5769 38.2192 53.19 38.5567 52.7917 38.8753C52.3935 39.1939 51.9839 39.5049 51.578 39.8121C50.7929 40.4378 49.9547 41.0067 49.1734 41.5869C48.3921 42.1672 47.5766 42.7019 46.7801 43.2025C45.2061 44.2341 43.6662 45.1557 42.2288 45.9786C40.7913 46.8016 39.4562 47.4957 38.2425 48.1138L36.8354 52.1794C38.0643 51.5498 39.6914 50.7193 40.0289 50.5259C41.2578 49.8394 42.608 49.0354 44.0607 48.1252C45.5133 47.215 47.0418 46.1872 48.6121 45.0495C49.4086 44.492 50.1785 43.8776 50.9939 43.2746C51.8094 42.6716 52.5983 42.0155 53.3796 41.3291L54.5744 40.3089C54.9536 39.9638 55.3329 39.5997 55.7425 39.2432C56.539 38.5378 57.2786 37.7717 58.0448 37.017C58.8109 36.2623 59.5202 35.4583 60.237 34.6618C60.9539 33.8654 61.6517 33.0424 62.2776 32.1891L63.2409 30.9224C63.5482 30.4977 63.8364 30.0577 64.1322 29.6292C64.7429 28.7721 65.2701 27.8809 65.7783 27.0048C66.0457 26.5769 66.2901 26.1351 66.5103 25.6812C66.7417 25.2375 66.9655 24.7938 67.193 24.3576C67.6178 23.474 67.9706 22.5751 68.3499 21.7029C68.6571 20.8192 68.9529 19.9469 69.2487 19.0936L69.8935 16.5678C70.0377 15.7411 70.1755 14.9371 70.3069 14.1558C70.4207 13.3973 70.4435 12.6388 70.5193 11.9031C70.5847 11.2161 70.6075 10.5259 70.5876 9.83614Z" fill="#F04D32"/>
<path d="M71.1111 12.9738C71.0987 12.2861 71.0455 11.5997 70.9518 10.9183C70.8646 10.266 70.8381 9.64399 70.7167 9.07512C70.4664 7.93737 70.3184 6.92857 70.0833 6.12077C69.6092 4.51275 69.3247 3.59497 69.3247 3.59497C69.3247 3.59497 69.5371 4.52413 69.905 6.15111C70.0947 6.96649 70.1743 7.97909 70.3526 9.12063C70.4322 9.69329 70.4209 10.3153 70.4664 10.96C70.5161 11.6402 70.5237 12.3229 70.4891 13.0041C70.4512 13.7171 70.455 14.4605 70.3753 15.2227C70.2957 15.985 70.1743 16.7852 70.0681 17.5968C69.8937 18.4034 69.7154 19.2327 69.5333 20.0847C69.2792 20.9191 69.0213 21.7762 68.7748 22.6446C68.4334 23.5017 68.13 24.3778 67.7507 25.2463C67.5459 25.6786 67.3411 26.1148 67.1401 26.5509C66.9444 26.9964 66.7241 27.4307 66.4801 27.8517C66.006 28.7126 65.5471 29.5849 64.9858 30.4268C64.7165 30.8478 64.4586 31.2801 64.1741 31.6973L63.2904 32.945C62.7215 33.7832 62.0388 34.572 61.4168 35.3798C60.7948 36.1876 60.0817 36.9499 59.3914 37.7084C58.7011 38.4669 57.9919 39.2254 57.2523 39.9118C56.873 40.2645 56.5317 40.6248 56.1638 40.9699L55.0449 41.9901C54.3243 42.669 53.5278 43.2872 52.8185 43.9205C52.1093 44.5538 51.3355 45.1341 50.5884 45.6916C49.1281 46.8293 47.6793 47.8419 46.3291 48.7635C44.9788 49.6851 43.7007 50.4853 42.5363 51.1679C41.3719 51.8506 40.363 52.4308 39.5248 52.9011L36.3313 54.566C35.8003 56.2802 35.3262 57.801 35 58.8439C35.861 58.4116 37.2757 57.7062 39.4982 56.5685C39.8472 56.3864 40.674 55.901 41.5388 55.3776C42.4035 54.8542 43.4352 54.2095 44.573 53.4359C45.7108 52.6622 47.0004 51.771 48.3658 50.7811C49.7312 49.7913 51.1459 48.6497 52.5985 47.4096C53.3381 46.8028 54.0474 46.1429 54.7946 45.483C55.5417 44.8231 56.2738 44.1253 56.983 43.3896L58.0715 42.2897C58.4508 41.9105 58.777 41.5312 59.1335 41.152C59.8579 40.3935 60.5179 39.5857 61.2082 38.7817C61.8985 37.9777 62.5205 37.1319 63.1577 36.29C63.7949 35.4481 64.4093 34.5872 64.9441 33.696L65.7785 32.3724C66.0402 31.9287 66.2829 31.4736 66.537 31.026C67.0604 30.1348 67.4814 29.217 67.9138 28.3106C68.1376 27.8631 68.331 27.4042 68.5093 26.9453L69.0517 25.58C69.3854 24.6736 69.6433 23.7596 69.9354 22.876C70.1478 21.9734 70.3602 21.0897 70.565 20.2212C70.6939 19.349 70.8229 18.4957 70.9443 17.6689C71.0011 16.8383 71.0505 16.0305 71.1036 15.2455C71.1567 14.4605 71.1111 13.6944 71.1111 12.9738Z" fill="#F04D32"/>
</svg>
