<svg width="193" height="193" viewBox="0 0 193 193" fill="none" xmlns="http://www.w3.org/2000/svg">
<path d="M159.007 136.411C159.369 135.448 159.568 134.406 159.568 133.316C159.568 128.459 155.63 124.52 150.772 124.52C145.915 124.52 141.976 128.458 141.976 133.316C141.976 134.711 142.301 136.03 142.88 137.202C142.528 137.343 142.185 137.502 141.851 137.676V157.731C143.415 158.549 145.195 159.012 147.083 159.012C149.143 159.012 151.075 158.46 152.738 157.498C154.401 158.46 156.332 159.012 158.392 159.012C164.637 159.012 169.701 153.948 169.701 147.703C169.701 141.663 164.967 136.73 159.007 136.411Z" fill="#E0E0E0"/>
<path d="M48.6179 124.468C47.7524 124.256 46.8478 124.143 45.9167 124.143C39.6713 124.143 34.6081 129.206 34.6081 135.451C34.6081 135.769 34.6217 136.083 34.6473 136.394C34.6345 136.394 34.6217 136.394 34.6081 136.394C28.3627 136.394 23.2995 141.457 23.2995 147.702C23.2995 153.948 28.3627 159.011 34.6081 159.011C36.511 159.011 38.3037 158.541 39.8779 157.71C41.4513 158.54 43.2448 159.011 45.1477 159.011C46.3585 159.011 47.5248 158.82 48.6187 158.468L48.6179 124.468Z" fill="#E0E0E0"/>
<path d="M92.4071 141.295H60.9496C60.1165 141.295 59.4418 141.97 59.4418 142.803V157.943H93.9157V142.803C93.9149 141.97 93.2402 141.295 92.4071 141.295Z" fill="#E0E0E0"/>
<path d="M48.728 85.223C44.9547 85.223 41.8954 82.1644 41.8954 78.3911V73.0663C41.8954 72.2332 42.5701 71.5585 43.4032 71.5585H54.0521C54.8852 71.5585 55.5599 72.2332 55.5599 73.0663V78.3911C55.5599 82.1637 52.5013 85.223 48.728 85.223Z" fill="#E0E0E0"/>
<path d="M72.1979 85.223C68.4246 85.223 65.3652 82.1644 65.3652 78.3911V73.0663C65.3652 72.2332 66.04 71.5585 66.873 71.5585H77.522C78.355 71.5585 79.0298 72.2332 79.0298 73.0663V78.3911C79.0298 82.1637 75.9712 85.223 72.1979 85.223Z" fill="#E0E0E0"/>
<path d="M95.6677 85.223C91.8944 85.223 88.835 82.1644 88.835 78.3911V73.0663C88.835 72.2332 89.5098 71.5585 90.3428 71.5585H100.992C101.825 71.5585 102.5 72.2332 102.5 73.0663V78.3911C102.5 82.1637 99.441 85.223 95.6677 85.223Z" fill="#E0E0E0"/>
<path d="M119.138 85.223C115.364 85.223 112.305 82.1644 112.305 78.3911V73.0663C112.305 72.2332 112.98 71.5585 113.813 71.5585H124.462C125.295 71.5585 125.969 72.2332 125.969 73.0663V78.3911C125.969 82.1637 122.911 85.223 119.138 85.223Z" fill="#E0E0E0"/>
<path d="M141.851 85.223C138.078 85.223 135.019 82.1644 135.019 78.3911V73.0663C135.019 72.2332 135.693 71.5585 136.526 71.5585H147.175C148.008 71.5585 148.683 72.2332 148.683 73.0663V78.3911C148.683 82.1637 145.625 85.223 141.851 85.223Z" fill="#E0E0E0"/>
<path d="M109.847 113.589H126.773V123.138H109.847V113.589Z" fill="#E0E0E0"/>
<path d="M155.17 78.6068V69.2614C155.17 67.8041 154.616 66.4199 153.611 65.3637L134.268 45.0391C132.497 43.1672 130.001 42.0936 127.424 42.0936H125.81C124.769 42.0936 123.926 42.9372 123.926 43.9784C123.926 45.0195 124.769 45.8632 125.81 45.8632H127.424C128.971 45.8632 130.467 46.507 131.534 47.6341L150.879 67.9624C151.213 68.3145 151.398 68.7751 151.398 69.2614V78.6076C151.398 83.9701 147.035 88.333 141.673 88.333C136.312 88.333 131.949 83.9709 131.948 78.6091C131.948 77.5679 131.104 76.7243 130.063 76.7243C129.022 76.7243 128.178 77.5687 128.178 78.6091C128.178 83.9709 123.815 88.333 118.453 88.333C113.091 88.333 108.729 83.9709 108.728 78.6091C108.728 77.5679 107.885 76.7243 106.844 76.7243C105.802 76.7243 104.959 77.5687 104.959 78.6091C104.958 83.9709 100.595 88.333 95.2334 88.333C89.8716 88.333 85.5095 83.9709 85.5088 78.6091C85.5088 77.5679 84.6652 76.7243 83.624 76.7243C82.5829 76.7243 81.7393 77.5687 81.7393 78.6091C81.7385 83.9709 77.3757 88.333 72.0139 88.333C66.6521 88.333 62.2892 83.9709 62.2885 78.6091C62.2885 77.5679 61.4449 76.7243 60.4037 76.7243C59.3626 76.7243 58.519 77.5687 58.519 78.6091C58.5182 83.9709 54.1561 88.333 48.7943 88.333C43.4318 88.333 39.0689 83.9701 39.0689 78.6076V69.2622C39.0689 68.7759 39.2536 68.3145 39.5884 67.9624L58.2295 48.3835C60.3442 46.1496 61.9153 45.8632 63.0484 45.8632H64.6618C65.7029 45.8632 66.5465 45.0195 66.5465 43.9784C66.5465 42.9372 65.7029 42.0936 64.6618 42.0936H63.0484C60.3193 42.0936 57.848 43.3029 55.4958 45.7878L36.8607 65.3637C35.855 66.4192 35.3017 67.8041 35.3017 69.2622V78.6076C35.3017 85.3452 40.2707 90.9294 46.7331 91.9276V156.059H37.1834C36.1423 156.059 35.2986 156.902 35.2986 157.943C35.2986 158.985 36.1423 159.828 37.1834 159.828H48.6179H104.281H132.176H141.851H153.285C154.326 159.828 155.17 158.985 155.17 157.943C155.17 156.902 154.326 156.059 153.285 156.059H143.736V91.9283C150.2 90.9309 155.17 85.346 155.17 78.6068ZM130.291 156.059H106.166V137.337H130.291V156.059ZM130.291 133.567H106.166V102.092H130.291V133.567ZM139.966 156.059H134.06V100.207C134.06 99.1659 133.217 98.3222 132.176 98.3222H104.281C103.24 98.3222 102.396 99.1659 102.396 100.207V156.059H50.5027V91.9917C54.7147 91.4572 58.3282 88.9768 60.406 85.4802C62.7604 89.442 67.0833 92.1025 72.0161 92.1025C76.9489 92.1025 81.2718 89.4412 83.6263 85.4802C85.98 89.442 90.3029 92.1025 95.2357 92.1025C100.168 92.1025 104.491 89.4412 106.846 85.4802C109.2 89.442 113.522 92.1025 118.455 92.1025C123.388 92.1025 127.711 89.4412 130.065 85.4802C132.143 88.9768 135.756 91.4564 139.966 91.9917V156.059Z" fill="#999999"/>
<path d="M93.9156 100.27H59.4417C58.4006 100.27 57.5569 101.113 57.5569 102.154V133.315C57.5569 134.357 58.4006 135.2 59.4417 135.2H67.8425H86.6901H93.9148C94.956 135.2 95.7996 134.357 95.8003 133.315V102.154C95.8003 101.113 94.9567 100.27 93.9156 100.27ZM84.8054 131.431H69.7273V128.007H84.8054V131.431ZM84.8054 124.238H69.7273V118.363C69.7273 114.206 73.1093 110.824 77.2663 110.824C81.4234 110.824 84.8054 114.206 84.8054 118.363V124.238ZM92.0308 131.431H88.5749V118.363C88.5749 112.128 83.5019 107.055 77.2663 107.055C71.0308 107.055 65.9577 112.128 65.9577 118.363V131.431H61.3265V104.039H92.0308V131.431Z" fill="#999999"/>
<path d="M124.385 143.996H127.275C128.316 143.996 129.16 143.152 129.16 142.111C129.16 141.07 128.316 140.227 127.275 140.227H124.385C123.344 140.227 122.501 141.07 122.501 142.111C122.501 143.152 123.344 143.996 124.385 143.996Z" fill="#999999"/>
<path d="M111.172 44.1035C111.172 42.1366 112.501 40.4802 114.31 39.9834C114.973 39.801 115.443 39.2159 115.443 38.5276V34.6797C115.443 33.8466 114.769 33.1719 113.936 33.1719H76.532C75.699 33.1719 75.0242 33.8466 75.0242 34.6797V38.5276C75.0242 39.2159 75.4947 39.801 76.1581 39.9834C77.9667 40.4802 79.2959 42.1366 79.2959 44.1035C79.2959 46.0705 77.9667 47.7268 76.1581 48.2236C75.4947 48.4061 75.0242 48.9911 75.0242 49.6794V53.5273C75.0242 54.3604 75.699 55.0352 76.532 55.0352H113.936C114.769 55.0352 115.443 54.3604 115.443 53.5273V49.6794C115.443 48.9911 114.973 48.4061 114.31 48.2236C112.501 47.7268 111.172 46.0705 111.172 44.1035Z" fill="#E8505B"/>
</svg>
