<svg width="884" height="552" viewBox="0 0 884 552" fill="none" xmlns="http://www.w3.org/2000/svg">
<path d="M258.48 36.2466H183.653V138.592H258.48V36.2466Z" fill="#F5F5F5"/>
<path d="M239.516 49.134H164.689V151.48H239.516V49.134Z" fill="#E0E0E0"/>
<path d="M592.227 189.09C592.227 189.09 592.066 189.103 591.744 189.115C591.397 189.115 590.926 189.127 590.294 189.14C588.994 189.152 587.099 189.164 584.658 189.177C579.704 189.189 572.532 189.214 563.514 189.251C545.418 189.276 519.975 189.313 490.545 189.363H490.346L490.297 189.177C488.786 184.027 489.715 177.985 493.084 173.368C496.453 168.762 502.225 165.828 508.183 165.977L507.911 166.323C507.477 164.813 507.267 163.117 507.341 161.433C507.564 155.8 510.772 150.353 515.702 147.828C520.557 145.265 526.565 145.364 531.16 147.914L530.789 148.05C533.415 141.65 538.952 137.02 544.947 134.866C550.967 132.675 557.643 132.972 562.895 135.708C568.172 138.406 571.925 143.012 574.006 147.84C576.136 152.693 576.434 157.905 575.368 162.387L575.17 162.151C578.193 161.817 581.103 162.337 583.618 163.365C586.132 164.392 588.263 165.902 589.886 167.66C590.691 168.527 591.384 169.48 591.855 170.483C592.326 171.486 592.673 172.501 592.908 173.491C593.391 175.472 593.564 177.317 593.626 178.976C593.738 182.306 593.329 184.869 592.97 186.565C592.772 187.406 592.598 188.05 592.45 188.471C592.301 188.892 592.227 189.09 592.227 189.09Z" fill="#EBEBEB"/>
<path d="M786.784 140.449C776.627 142.133 769.753 151.739 771.449 161.891C773.134 172.043 782.746 178.914 792.903 177.218C801.599 175.769 807.866 168.539 808.448 160.121H808.461L813.576 159.267L816.301 153.522L820.29 158.152L826.694 157.088L829.419 151.343L833.408 155.973L838.907 155.057L840.567 151.554L842.995 154.376L846.203 153.844L849.721 149.189L843.688 142.554L805.612 148.88C801.735 142.739 794.414 139.186 786.784 140.449ZM776.404 161.074C775.921 158.165 777.891 155.404 780.801 154.921C783.712 154.438 786.475 156.407 786.958 159.316C787.441 162.225 785.471 164.986 782.56 165.469C779.637 165.952 776.887 163.983 776.404 161.074Z" fill="#EBEBEB"/>
<path d="M767.87 282.868L770.161 325.072C770.248 326.57 771.487 327.758 772.985 327.771L848.978 328.328C850.551 328.34 851.839 327.077 851.851 325.493L852.087 292.636C852.099 291.052 850.823 289.764 849.238 289.764L802.503 289.727C801.747 289.727 801.029 289.43 800.484 288.898L792.42 280.838C791.887 280.306 791.169 280.009 790.426 280.009L770.719 279.86C769.096 279.86 767.783 281.234 767.87 282.868Z" fill="#EBEBEB"/>
<path d="M852.192 284.828L769.151 284.22L768.788 333.814L851.828 334.422L852.192 284.828Z" fill="#F5F5F5"/>
<path d="M762.494 288.613L768.452 340.374C768.563 341.29 769.331 341.995 770.26 341.995L851.182 342.59C852.136 342.602 852.941 341.872 853.028 340.918L857.487 289.232C857.574 288.167 856.744 287.251 855.679 287.239L764.339 286.57C763.225 286.558 762.37 287.511 762.494 288.613Z" fill="#EBEBEB"/>
<path d="M758.282 515.935C739.021 502.477 734.649 477.519 735.404 455.074C735.528 451.323 735.119 447.374 736.903 444.093C738.687 440.813 742.849 438.559 746.205 440.144C748.992 441.456 750.206 444.688 751.755 447.362C753.823 450.927 756.907 453.874 760.549 455.755C762.94 456.993 765.888 457.749 768.241 456.449C771.474 454.666 771.858 450.197 771.833 446.47C771.784 439.525 771.747 432.58 771.697 425.635C771.672 421.908 771.66 418.108 772.824 414.567C773.989 411.026 776.54 407.746 780.095 406.755C783.638 405.765 788.023 407.808 788.778 411.447C789.088 412.97 788.778 414.542 788.89 416.09C788.989 417.637 789.72 419.346 791.181 419.779C792.668 420.212 794.167 419.16 795.281 418.071C799.134 414.307 801.735 409.466 804.175 404.638C806.615 399.822 808.981 394.883 812.474 390.785C815.967 386.687 820.798 383.431 826.137 383.122C831.475 382.825 837.161 386.118 838.511 391.355C839.861 396.604 836.802 401.939 833.457 406.186C828.502 412.5 822.656 418.071 816.128 422.688C814.951 423.518 813.676 424.422 813.23 425.808C812.425 428.296 814.778 430.76 817.231 431.577C820.005 432.506 823.028 432.209 825.926 432.555C828.837 432.902 831.983 434.177 833.086 436.925C834.609 440.738 831.426 444.725 828.292 447.337C822.012 452.574 814.84 456.709 807.197 459.506C804.46 460.509 801.574 461.388 799.357 463.319C797.139 465.251 795.814 468.593 797.152 471.218C798.49 473.843 801.921 474.684 804.794 474.152C807.668 473.62 810.232 472.06 812.97 471.032C818.098 469.101 824.712 469.448 827.995 473.88C830.15 476.789 830.336 480.837 829.246 484.304C828.156 487.77 825.938 490.754 823.597 493.514C815.385 503.146 804.869 510.896 792.99 515.018C781.111 519.141 770.099 520.255 758.282 515.935Z" fill="#EBEBEB"/>
<path d="M757.985 532.573C758.803 523.684 760.747 513.186 764.079 501.858C767.387 490.531 772.032 478.423 777.346 465.907C778.683 462.787 780.009 459.705 781.309 456.659C782.622 453.626 783.911 450.618 785.36 447.758C788.233 442.026 791.429 436.727 794.625 431.788C797.821 426.848 801.029 422.28 804.064 418.034C807.111 413.787 810.022 409.887 812.821 406.446C818.407 399.538 823.573 394.499 827.251 391.194C829.085 389.535 830.559 388.297 831.562 387.467C832.045 387.071 832.429 386.762 832.714 386.526C832.974 386.316 833.11 386.217 833.123 386.229C833.135 386.242 833.011 386.353 832.764 386.588C832.491 386.836 832.119 387.158 831.661 387.579C830.683 388.445 829.246 389.708 827.437 391.404C823.82 394.771 818.729 399.835 813.193 406.768C810.418 410.222 807.532 414.134 804.522 418.38C801.512 422.639 798.316 427.219 795.145 432.147C791.974 437.074 788.803 442.36 785.942 448.067C784.505 450.915 783.229 453.898 781.916 456.931C780.616 459.965 779.303 463.047 777.965 466.167C772.663 478.658 768.006 490.741 764.674 502.019C761.33 513.298 759.335 523.734 758.456 532.598" fill="#E0E0E0"/>
<path d="M785.546 447.758C785.496 447.77 785.372 447.201 785.186 446.173C784.988 445.146 784.753 443.648 784.493 441.791C783.96 438.077 783.415 432.927 782.82 427.257C782.238 421.574 781.607 416.449 781.024 412.76C780.739 410.915 780.492 409.417 780.306 408.39C780.133 407.362 780.046 406.78 780.095 406.768C780.145 406.755 780.306 407.312 780.566 408.328C780.826 409.343 781.148 410.828 781.495 412.673C782.201 416.362 782.907 421.5 783.489 427.182C784.059 432.791 784.567 437.854 784.963 441.729C785.149 443.474 785.31 444.948 785.434 446.136C785.558 447.164 785.595 447.746 785.546 447.758Z" fill="#E0E0E0"/>
<path d="M833.482 438.795C833.482 438.844 832.801 438.919 831.574 439.018C830.348 439.129 828.564 439.278 826.372 439.525C821.987 439.996 815.942 440.862 809.316 442.113C802.689 443.375 796.743 444.762 792.482 445.901C790.339 446.458 788.617 446.941 787.428 447.275C786.239 447.609 785.57 447.783 785.558 447.733C785.546 447.684 786.177 447.436 787.354 447.015C788.518 446.607 790.228 446.037 792.358 445.418C796.607 444.155 802.552 442.682 809.204 441.419C815.843 440.169 821.925 439.377 826.335 439.03C828.54 438.832 830.336 438.758 831.574 438.733C832.788 438.745 833.482 438.758 833.482 438.795Z" fill="#E0E0E0"/>
<path d="M764.674 500.992C764.649 501.004 764.538 500.806 764.34 500.41C764.117 499.939 763.844 499.37 763.522 498.677C762.816 497.166 761.85 494.963 760.698 492.214C758.382 486.73 755.433 479.042 752.287 470.525C749.141 462.007 746.255 454.307 744.063 448.773C742.985 446.086 742.105 443.87 741.449 442.236C741.164 441.518 740.941 440.936 740.743 440.454C740.594 440.045 740.52 439.822 740.545 439.81C740.57 439.797 740.681 440.008 740.879 440.392C741.102 440.862 741.375 441.432 741.697 442.125C742.403 443.635 743.369 445.839 744.521 448.587C746.837 454.072 749.785 461.76 752.931 470.277C756.078 478.794 758.964 486.495 761.156 492.029C762.234 494.715 763.113 496.931 763.77 498.565C764.055 499.283 764.278 499.865 764.476 500.348C764.624 500.757 764.686 500.979 764.674 500.992Z" fill="#E0E0E0"/>
<path d="M828.366 480.466C828.366 480.491 828.156 480.577 827.735 480.726C827.239 480.887 826.62 481.097 825.889 481.345C824.18 481.902 821.876 482.645 819.064 483.548C813.304 485.418 805.377 488.079 796.632 491.051C787.874 494.01 779.922 496.609 774.125 498.355C771.227 499.234 768.873 499.915 767.238 500.348C766.482 500.546 765.863 500.707 765.355 500.843C764.922 500.955 764.686 500.992 764.686 500.967C764.686 500.942 764.897 500.856 765.318 500.707C765.814 500.546 766.421 500.336 767.164 500.088C768.873 499.531 771.177 498.788 773.989 497.884C779.749 496.015 787.676 493.353 796.433 490.382C805.191 487.423 813.143 484.824 818.94 483.078C821.838 482.199 824.192 481.518 825.827 481.085C826.583 480.887 827.202 480.726 827.71 480.59C828.131 480.491 828.354 480.441 828.366 480.466Z" fill="#E0E0E0"/>
<path d="M836.653 532.623C836.653 532.796 658.57 532.945 438.942 532.945C219.239 532.945 41.1935 532.796 41.1935 532.623C41.1935 532.449 219.239 532.301 438.942 532.301C658.57 532.301 836.653 532.449 836.653 532.623Z" fill="#263238"/>
<path d="M744.905 489.404C747.072 492.19 750.949 491.026 752.671 489.181C754.405 487.337 755.037 484.737 755.619 482.273C756.932 476.64 758.258 470.735 756.784 465.127C756.338 463.456 755.619 461.797 754.368 460.608C753.117 459.42 751.247 458.764 749.599 459.284C747.642 459.903 746.515 461.908 745.722 463.79C743.381 469.336 742.304 475.415 742.588 481.419C742.712 484.242 743.195 487.163 744.905 489.404Z" fill="#E8505B"/>
<g opacity="0.2">
<g opacity="0.2">
<path opacity="0.2" d="M744.905 489.404C747.072 492.19 750.949 491.026 752.671 489.181C754.405 487.337 755.037 484.737 755.619 482.273C756.932 476.64 758.258 470.735 756.784 465.127C756.338 463.456 755.619 461.797 754.368 460.608C753.117 459.42 751.247 458.764 749.599 459.284C747.642 459.903 746.515 461.908 745.722 463.79C743.381 469.336 742.304 475.415 742.588 481.419C742.712 484.242 743.195 487.163 744.905 489.404Z" fill="black"/>
</g>
</g>
<path d="M753.204 503.616C756.424 501.747 760.301 501.326 763.993 501.747C765.974 501.97 768.055 502.453 769.48 503.864C770.892 505.275 771.276 507.863 769.802 509.212C768.922 510.017 767.659 510.19 766.47 510.24C763.596 510.351 760.388 510.005 758.183 511.849C756.92 512.901 756.139 514.585 754.603 515.142C753.092 515.699 751.321 514.882 750.442 513.545C749.562 512.208 749.451 510.487 749.748 508.903C749.736 508.915 749.959 505.498 753.204 503.616Z" fill="#E8505B"/>
<path d="M739.566 493.824C741.622 491.113 741.845 487.3 740.706 484.093C739.566 480.887 737.225 478.225 734.562 476.096C731.453 473.595 727.848 471.701 724.021 470.574C722.51 470.128 720.936 469.794 719.376 470.029C717.815 470.252 716.292 471.131 715.635 472.567C714.656 474.672 715.821 477.111 717.035 479.092C719.19 482.57 721.605 485.888 724.281 488.983C726.424 491.484 728.864 493.923 731.998 494.938C735.132 495.953 738.315 495.656 739.839 493.44" fill="#E8505B"/>
<path d="M746.961 532.883C746.998 532.883 747.035 532.412 747.073 531.558C747.122 530.605 747.172 529.404 747.246 527.968C747.333 526.457 747.469 524.65 747.791 522.682C748.113 520.713 748.658 518.571 749.389 516.393C750.144 514.226 751.111 512.245 752.263 510.636C753.414 509.026 754.777 507.826 756.09 507.108C757.391 506.377 758.58 506.055 759.397 505.894C760.227 505.77 760.698 505.671 760.698 505.634C760.698 505.597 760.227 505.61 759.372 505.684C758.53 505.783 757.292 506.068 755.904 506.773C754.517 507.467 753.068 508.692 751.854 510.339C750.64 511.985 749.637 514.003 748.869 516.219C748.125 518.435 747.593 520.602 747.295 522.607C746.998 524.613 746.911 526.433 746.862 527.955C746.825 529.478 746.85 530.704 746.862 531.558C746.887 532.412 746.924 532.883 746.961 532.883Z" fill="#263238"/>
<path d="M747.073 530.122C747.085 530.122 747.097 529.911 747.073 529.515C747.048 529.057 747.023 528.488 746.986 527.782C746.911 526.272 746.8 524.093 746.738 521.394C746.602 515.996 746.688 508.531 747.172 500.311C747.667 492.091 748.485 484.663 749.314 479.339C749.5 478.002 749.711 476.801 749.897 475.749C750.082 474.697 750.231 473.781 750.38 473.038C750.516 472.344 750.615 471.775 750.702 471.329C750.764 470.933 750.801 470.723 750.776 470.723C750.764 470.723 750.689 470.921 750.59 471.305C750.479 471.75 750.343 472.307 750.169 473.001C749.983 473.731 749.797 474.635 749.587 475.699C749.364 476.752 749.141 477.953 748.918 479.29C747.989 484.625 747.11 492.053 746.614 500.298C746.131 508.544 746.106 516.021 746.342 521.419C746.441 524.118 746.614 526.309 746.763 527.807C746.837 528.513 746.911 529.082 746.961 529.54C747.011 529.911 747.048 530.122 747.073 530.122Z" fill="#263238"/>
<path d="M746.379 515.724C746.416 515.724 746.379 515.08 746.28 513.904C746.156 512.74 745.908 511.069 745.474 509.014C745.016 506.971 744.409 504.545 743.517 501.933C742.65 499.296 741.511 496.473 740.086 493.601C737.299 487.832 733.682 483.177 730.586 480.342C729.855 479.587 729.062 479.054 728.418 478.522C728.084 478.275 727.786 478.015 727.502 477.816C727.204 477.631 726.932 477.457 726.672 477.309C725.668 476.702 725.111 476.38 725.099 476.405C725.012 476.529 727.34 477.742 730.338 480.614C733.323 483.486 736.853 488.117 739.616 493.836C741.028 496.671 742.167 499.481 743.059 502.081C743.976 504.669 744.62 507.07 745.115 509.088C745.598 511.119 745.896 512.777 746.081 513.916C746.23 515.093 746.342 515.736 746.379 515.724Z" fill="#263238"/>
<path d="M162.174 254.716H22.1304V348.458H162.174V254.716Z" fill="#FAFAFA"/>
<path d="M124.122 311.578H120.394V289.145C120.394 283.76 116.009 279.377 110.621 279.377C105.233 279.377 100.848 283.76 100.848 289.145V311.578H97.1193V289.145C97.1193 281.705 103.176 275.639 110.633 275.639C118.078 275.639 124.147 281.692 124.147 289.145V311.578H124.122Z" fill="#263238"/>
<path d="M124.89 325.283H96.3513C94.035 325.283 92.1522 323.401 92.1522 321.086V305.796C92.1522 303.481 94.035 301.6 96.3513 301.6H124.89C127.206 301.6 129.089 303.481 129.089 305.796V321.086C129.089 323.401 127.206 325.283 124.89 325.283Z" fill="#263238"/>
<path d="M110.621 313.435C108.911 313.435 107.536 312.048 107.536 310.352C107.536 308.656 108.924 307.27 110.621 307.27C112.318 307.27 113.705 308.656 113.705 310.352C113.705 312.048 112.318 313.435 110.621 313.435Z" fill="#455A64"/>
<path d="M111.463 311.578H109.778V317.929H111.463V311.578Z" fill="#455A64"/>
<path d="M91.2232 311.305C96.4132 309.126 100.104 303.778 100.129 297.477C100.166 289.219 93.9111 282.497 86.1694 282.472C78.4278 282.435 72.123 289.096 72.0858 297.353C72.061 303.716 75.777 309.126 81.0166 311.305C59.439 314.549 60.4176 337.997 60.4176 337.997L111.438 338.232C111.451 338.232 112.615 314.537 91.2232 311.305Z" fill="#E8505B"/>
<path d="M162.162 348.47C162.162 348.47 162.149 347.876 162.137 346.762C162.124 345.623 162.124 343.976 162.112 341.81C162.1 337.464 162.075 331.101 162.05 322.955C162.013 306.663 161.976 283.265 161.914 254.729L162.174 254.989C123.577 255.001 74.8976 255.026 22.1428 255.051H22.1304L22.4524 254.729C22.44 288.13 22.4277 319.885 22.4277 348.47L22.1304 348.173C63.3408 348.235 98.3084 348.284 122.995 348.322C135.344 348.359 145.118 348.384 151.831 348.396C155.176 348.408 157.752 348.421 159.498 348.433C160.366 348.445 161.022 348.445 161.48 348.445C161.926 348.458 162.162 348.47 162.162 348.47C162.162 348.47 161.951 348.483 161.518 348.483C161.059 348.483 160.415 348.495 159.573 348.495C157.826 348.507 155.275 348.52 151.955 348.532C145.266 348.544 135.518 348.582 123.193 348.606C98.457 348.644 63.4275 348.693 22.1304 348.755H21.8331V348.458C21.8207 319.872 21.8207 288.105 21.8083 254.716V254.395H22.1304H22.1428C74.8976 254.419 123.577 254.444 162.174 254.456H162.434V254.716C162.372 283.314 162.335 306.774 162.298 323.104C162.273 331.225 162.248 337.576 162.236 341.909C162.224 344.051 162.211 345.685 162.211 346.811C162.186 347.913 162.162 348.47 162.162 348.47Z" fill="#263238"/>
<path d="M162.137 265.982C162.137 266.156 130.811 266.304 92.1646 266.304C53.5182 266.304 22.1923 266.156 22.1923 265.982C22.1923 265.809 53.5182 265.66 92.1646 265.66C130.799 265.66 162.137 265.809 162.137 265.982Z" fill="#263238"/>
<path d="M31.3461 260.362C31.3461 261.166 30.7019 261.81 29.8968 261.81C29.0917 261.81 28.4476 261.166 28.4476 260.362C28.4476 259.557 29.0917 258.913 29.8968 258.913C30.7019 258.913 31.3461 259.557 31.3461 260.362Z" fill="#263238"/>
<path d="M36.0902 260.362C36.0902 261.166 35.4461 261.81 34.6409 261.81C33.8358 261.81 33.1917 261.166 33.1917 260.362C33.1917 259.557 33.8358 258.913 34.6409 258.913C35.4461 258.913 36.0902 259.557 36.0902 260.362Z" fill="#263238"/>
<path d="M41.1811 260.362C41.1811 261.166 40.537 261.81 39.7318 261.81C38.9267 261.81 38.2826 261.166 38.2826 260.362C38.2826 259.557 38.9267 258.913 39.7318 258.913C40.537 258.913 41.1811 259.557 41.1811 260.362Z" fill="#263238"/>
<path d="M162.162 348.47C162.162 348.47 162.149 347.876 162.137 346.762C162.124 345.623 162.124 343.976 162.112 341.81C162.1 337.464 162.075 331.101 162.05 322.955C162.013 306.663 161.976 283.265 161.914 254.729L162.174 254.989C123.577 255.001 74.8976 255.026 22.1428 255.051H22.1304L22.4524 254.729C22.44 288.13 22.4277 319.885 22.4277 348.47L22.1304 348.173C63.3408 348.235 98.3084 348.284 122.995 348.322C135.344 348.359 145.118 348.384 151.831 348.396C155.176 348.408 157.752 348.421 159.498 348.433C160.366 348.445 161.022 348.445 161.48 348.445C161.926 348.458 162.162 348.47 162.162 348.47C162.162 348.47 161.951 348.483 161.518 348.483C161.059 348.483 160.415 348.495 159.573 348.495C157.826 348.507 155.275 348.52 151.955 348.532C145.266 348.544 135.518 348.582 123.193 348.606C98.457 348.644 63.4275 348.693 22.1304 348.755H21.8331V348.458C21.8207 319.872 21.8207 288.105 21.8083 254.716V254.395H22.1304H22.1428C74.8976 254.419 123.577 254.444 162.174 254.456H162.434V254.716C162.372 283.314 162.335 306.774 162.298 323.104C162.273 331.225 162.248 337.576 162.236 341.909C162.224 344.051 162.211 345.685 162.211 346.811C162.186 347.913 162.162 348.47 162.162 348.47Z" fill="#263238"/>
<path d="M91.2342 351.565C91.0608 351.565 90.9121 350.872 90.9121 350.018C90.9121 349.164 91.0608 348.47 91.2342 348.47C91.4076 348.47 91.5562 349.164 91.5562 350.018C91.5686 350.872 91.42 351.565 91.2342 351.565Z" fill="#263238"/>
<path d="M91.2356 365.109C91.0622 365.109 90.9135 363.599 90.9135 361.717C90.9135 359.847 91.0622 358.325 91.2356 358.325C91.409 358.325 91.5577 359.835 91.5577 361.717C91.57 363.586 91.4214 365.109 91.2356 365.109Z" fill="#263238"/>
<path d="M91.2356 378.653C91.0622 378.653 90.9135 377.142 90.9135 375.26C90.9135 373.391 91.0622 371.868 91.2356 371.868C91.409 371.868 91.5577 373.379 91.5577 375.26C91.57 377.13 91.4214 378.653 91.2356 378.653Z" fill="#263238"/>
<path d="M91.2356 392.196C91.0622 392.196 90.9135 390.686 90.9135 388.804C90.9135 386.935 91.0622 385.412 91.2356 385.412C91.409 385.412 91.5577 386.922 91.5577 388.804C91.57 390.674 91.4214 392.196 91.2356 392.196Z" fill="#263238"/>
<path d="M91.2356 405.74C91.0622 405.74 90.9135 404.23 90.9135 402.348C90.9135 400.479 91.0622 398.956 91.2356 398.956C91.409 398.956 91.5577 400.466 91.5577 402.348C91.57 404.217 91.4214 405.74 91.2356 405.74Z" fill="#263238"/>
<path d="M94.3323 415.607C94.3323 415.78 92.945 415.929 91.2356 415.929C90.5915 415.285 91.0622 415.756 90.9135 415.607V415.595V415.57V415.533V415.458V415.298V414.988C90.9135 414.802 90.9259 414.617 90.9383 414.406C90.9507 414.035 90.9755 413.701 91.0126 413.428C91.0746 412.871 91.1489 412.524 91.2356 412.524C91.3223 412.524 91.409 412.871 91.4586 413.428C91.4833 413.713 91.5081 414.047 91.5329 414.406C91.5453 414.617 91.5453 414.802 91.5577 414.988V415.298V415.458V415.533V415.57V415.595V415.607C91.409 415.458 91.8797 415.929 91.2356 415.285C92.9574 415.285 94.3323 415.434 94.3323 415.607Z" fill="#263238"/>
<path d="M106.508 415.607C106.508 415.78 105.146 415.929 103.461 415.929C101.777 415.929 100.414 415.78 100.414 415.607C100.414 415.434 101.777 415.285 103.461 415.285C105.146 415.285 106.508 415.434 106.508 415.607Z" fill="#263238"/>
<path d="M118.684 415.607C118.684 415.78 117.322 415.929 115.637 415.929C113.953 415.929 112.59 415.78 112.59 415.607C112.59 415.434 113.953 415.285 115.637 415.285C117.322 415.285 118.684 415.434 118.684 415.607Z" fill="#263238"/>
<path d="M130.861 415.607C130.861 415.78 129.498 415.929 127.813 415.929C126.129 415.929 124.766 415.78 124.766 415.607C124.766 415.434 126.129 415.285 127.813 415.285C129.498 415.285 130.861 415.434 130.861 415.607Z" fill="#263238"/>
<path d="M143.024 415.607C143.024 415.78 141.662 415.929 139.977 415.929C138.293 415.929 136.93 415.78 136.93 415.607C136.93 415.434 138.293 415.285 139.977 415.285C141.662 415.285 143.024 415.434 143.024 415.607Z" fill="#263238"/>
<path d="M155.2 415.607C155.2 415.78 153.838 415.929 152.153 415.929C150.469 415.929 149.106 415.78 149.106 415.607C149.106 415.434 150.469 415.285 152.153 415.285C153.838 415.285 155.2 415.434 155.2 415.607Z" fill="#263238"/>
<path d="M167.376 415.607C167.376 415.78 166.014 415.929 164.329 415.929C162.645 415.929 161.282 415.78 161.282 415.607C161.282 415.434 162.645 415.285 164.329 415.285C166.014 415.285 167.376 415.434 167.376 415.607Z" fill="#263238"/>
<path d="M179.54 415.607C179.54 415.78 178.178 415.929 176.493 415.929C174.808 415.929 173.446 415.78 173.446 415.607C173.446 415.434 174.808 415.285 176.493 415.285C178.178 415.285 179.54 415.434 179.54 415.607Z" fill="#263238"/>
<path d="M191.716 415.607C191.716 415.78 190.354 415.929 188.669 415.929C186.985 415.929 185.622 415.78 185.622 415.607C185.622 415.434 186.985 415.285 188.669 415.285C190.354 415.285 191.716 415.434 191.716 415.607Z" fill="#263238"/>
<path d="M203.892 415.607C203.892 415.78 202.53 415.929 200.845 415.929C199.161 415.929 197.798 415.78 197.798 415.607C197.798 415.434 199.161 415.285 200.845 415.285C202.53 415.285 203.892 415.434 203.892 415.607Z" fill="#263238"/>
<path d="M216.056 415.607C216.056 415.78 214.694 415.929 213.009 415.929C211.324 415.929 209.962 415.78 209.962 415.607C209.962 415.434 211.324 415.285 213.009 415.285C214.694 415.285 216.056 415.434 216.056 415.607Z" fill="#263238"/>
<path d="M225.247 415.607C225.247 415.78 224.553 415.929 223.699 415.929C222.844 415.929 222.15 415.78 222.15 415.607C222.15 415.434 222.844 415.285 223.699 415.285C224.553 415.285 225.247 415.434 225.247 415.607Z" fill="#263238"/>
<path d="M226.696 64.8567H151.868V167.202H226.696V64.8567Z" fill="white"/>
<path d="M226.733 167.177C226.733 167.177 226.721 167.004 226.709 166.67C226.709 166.323 226.696 165.84 226.684 165.221C226.671 163.922 226.659 162.052 226.634 159.626C226.609 154.723 226.572 147.605 226.523 138.604C226.473 120.592 226.386 95.0516 226.3 64.8196L226.634 65.1539C204.103 65.1786 178.648 65.2158 151.806 65.2405H151.794L152.166 64.8691C152.166 103.099 152.166 138.493 152.166 167.215L151.856 166.905C174.486 166.955 193.153 166.992 206.196 167.029C212.712 167.054 217.815 167.078 221.32 167.091C223.054 167.103 224.38 167.116 225.309 167.128C226.25 167.153 226.733 167.177 226.733 167.177C226.733 167.177 226.3 167.202 225.408 167.215C224.491 167.227 223.178 167.239 221.481 167.252C217.988 167.276 212.91 167.301 206.432 167.338C193.351 167.388 174.61 167.45 151.905 167.536H151.596V167.227C151.559 138.505 151.509 103.111 151.447 64.8815V64.5101H151.819H151.831C178.673 64.4977 204.115 64.4977 226.659 64.4854H226.993V64.8196C226.944 95.1382 226.907 120.752 226.882 138.815C226.845 147.79 226.82 154.884 226.808 159.762C226.795 162.164 226.783 164.008 226.77 165.283C226.758 165.89 226.758 166.348 226.758 166.695C226.746 167.029 226.746 167.177 226.733 167.177Z" fill="#263238"/>
<path d="M197.612 85.42C197.612 85.6304 189.474 85.8038 179.429 85.8038C169.383 85.8161 161.245 85.6552 161.245 85.4447C161.245 85.2343 169.383 85.061 179.429 85.061C189.474 85.0486 197.612 85.2095 197.612 85.42Z" fill="#263238"/>
<path d="M217.282 94.2963C217.282 94.5067 204.735 94.68 189.264 94.6924C173.793 94.7048 161.245 94.5439 161.245 94.3334C161.245 94.123 173.793 93.9496 189.264 93.9373C204.735 93.9373 217.282 94.0858 217.282 94.2963Z" fill="#263238"/>
<path d="M217.295 103.581C217.295 103.792 204.747 103.965 189.276 103.978C173.805 103.99 161.257 103.829 161.257 103.619C161.257 103.408 173.805 103.235 189.276 103.222C204.747 103.21 217.295 103.371 217.295 103.581Z" fill="#263238"/>
<path d="M217.295 112.854C217.295 113.064 204.747 113.238 189.276 113.25C173.805 113.262 161.257 113.102 161.257 112.891C161.257 112.681 173.805 112.507 189.276 112.495C204.759 112.495 217.295 112.643 217.295 112.854Z" fill="#263238"/>
<path d="M217.307 122.127C217.307 122.337 204.759 122.51 189.288 122.523C173.817 122.535 161.27 122.374 161.27 122.164C161.27 121.953 173.817 121.78 189.288 121.768C204.759 121.768 217.307 121.929 217.307 122.127Z" fill="#263238"/>
<path d="M217.307 131.412C217.307 131.622 204.759 131.795 189.288 131.808C173.817 131.82 161.27 131.659 161.27 131.449C161.27 131.238 173.817 131.065 189.288 131.053C204.772 131.04 217.307 131.201 217.307 131.412Z" fill="#263238"/>
<path d="M217.319 140.684C217.319 140.895 204.772 141.068 189.301 141.08C173.83 141.093 161.282 140.932 161.282 140.721C161.282 140.511 173.83 140.338 189.301 140.325C204.772 140.325 217.319 140.486 217.319 140.684Z" fill="#263238"/>
<path d="M191.407 149.982C191.407 150.192 184.668 150.365 176.344 150.365C168.021 150.365 161.282 150.204 161.282 150.006C161.282 149.796 168.021 149.623 176.344 149.623C184.668 149.623 191.407 149.783 191.407 149.982Z" fill="#263238"/>
<path d="M220.193 174.618C228.587 174.618 235.392 167.817 235.392 159.428C235.392 151.038 228.587 144.237 220.193 144.237C211.799 144.237 204.995 151.038 204.995 159.428C204.995 167.817 211.799 174.618 220.193 174.618Z" fill="#E8505B"/>
<path d="M228.913 153.572C229.57 154.178 226.585 158.437 222.249 163.067C221.556 163.81 220.862 164.528 220.206 165.172L219.153 166.212L218.112 165.333C214.334 162.163 211.857 159.44 212.315 158.846C212.774 158.251 216.019 159.985 220.032 162.869L217.939 163.03C218.546 162.337 219.202 161.594 219.908 160.851C224.219 156.221 228.257 152.965 228.913 153.572Z" fill="#E0E0E0"/>
<path d="M183.615 172.786C183.442 172.786 183.293 171.399 183.293 169.691C183.293 167.982 183.442 166.596 183.615 166.596C183.789 166.596 183.937 167.982 183.937 169.691C183.937 171.399 183.801 172.786 183.615 172.786Z" fill="#263238"/>
<path d="M183.615 185.166C183.442 185.166 183.293 183.779 183.293 182.071C183.293 180.362 183.442 178.976 183.615 178.976C183.789 178.976 183.937 180.362 183.937 182.071C183.937 183.779 183.801 185.166 183.615 185.166Z" fill="#263238"/>
<path d="M183.615 197.546C183.442 197.546 183.293 196.159 183.293 194.451C183.293 192.742 183.442 191.356 183.615 191.356C183.789 191.356 183.937 192.742 183.937 194.451C183.937 196.159 183.801 197.546 183.615 197.546Z" fill="#263238"/>
<path d="M183.615 209.926C183.442 209.926 183.293 208.539 183.293 206.831C183.293 205.122 183.442 203.736 183.615 203.736C183.789 203.736 183.937 205.122 183.937 206.831C183.937 208.539 183.801 209.926 183.615 209.926Z" fill="#263238"/>
<path d="M183.615 222.306C183.442 222.306 183.293 220.919 183.293 219.211C183.293 217.502 183.442 216.116 183.615 216.116C183.789 216.116 183.937 217.502 183.937 219.211C183.937 220.919 183.801 222.306 183.615 222.306Z" fill="#263238"/>
<path d="M183.615 234.686C183.442 234.686 183.293 233.299 183.293 231.591C183.293 229.882 183.442 228.496 183.615 228.496C183.789 228.496 183.937 229.882 183.937 231.591C183.937 233.299 183.801 234.686 183.615 234.686Z" fill="#263238"/>
<path d="M183.615 247.066C183.442 247.066 183.293 245.679 183.293 243.971C183.293 242.262 183.442 240.876 183.615 240.876C183.789 240.876 183.937 242.262 183.937 243.971C183.937 245.679 183.801 247.066 183.615 247.066Z" fill="#263238"/>
<path d="M183.615 259.446C183.442 259.446 183.293 258.059 183.293 256.351C183.293 254.642 183.442 253.256 183.615 253.256C183.789 253.256 183.937 254.642 183.937 256.351C183.937 258.059 183.801 259.446 183.615 259.446Z" fill="#263238"/>
<path d="M189.598 265.846C189.598 266.019 188.211 266.168 186.501 266.168C185.188 266.168 184.061 266.081 183.615 265.958L183.479 265.92L183.504 265.846C183.541 265.71 183.578 265.636 183.615 265.636C183.652 265.636 183.702 265.71 183.727 265.846L183.615 265.735C184.061 265.611 185.176 265.524 186.501 265.524C188.211 265.524 189.598 265.673 189.598 265.846Z" fill="#263238"/>
<path d="M201.985 265.846C201.985 266.019 200.597 266.168 198.888 266.168C197.179 266.168 195.791 266.019 195.791 265.846C195.791 265.673 197.179 265.524 198.888 265.524C200.597 265.524 201.985 265.673 201.985 265.846Z" fill="#263238"/>
<path d="M214.371 265.846C214.371 266.019 212.984 266.168 211.275 266.168C209.565 266.168 208.178 266.019 208.178 265.846C208.178 265.673 209.565 265.524 211.275 265.524C212.984 265.524 214.371 265.673 214.371 265.846Z" fill="#263238"/>
<path d="M226.758 265.846C226.758 266.019 225.371 266.168 223.661 266.168C221.952 266.168 220.565 266.019 220.565 265.846C220.565 265.673 221.952 265.524 223.661 265.524C225.371 265.524 226.758 265.673 226.758 265.846Z" fill="#263238"/>
<path d="M239.145 265.846C239.145 266.019 237.757 266.168 236.048 266.168C234.339 266.168 232.951 266.019 232.951 265.846C232.951 265.673 234.339 265.524 236.048 265.524C237.757 265.524 239.145 265.673 239.145 265.846Z" fill="#263238"/>
<path d="M445.445 153.857C445.271 153.857 445.123 152.47 445.123 150.762C445.123 149.053 445.271 147.667 445.445 147.667C445.618 147.667 445.767 149.053 445.767 150.762C445.767 152.47 445.631 153.857 445.445 153.857Z" fill="#263238"/>
<path d="M445.445 166.237C445.271 166.237 445.123 164.85 445.123 163.142C445.123 161.433 445.271 160.047 445.445 160.047C445.618 160.047 445.767 161.433 445.767 163.142C445.767 164.85 445.631 166.237 445.445 166.237Z" fill="#263238"/>
<path d="M445.445 178.617C445.271 178.617 445.123 177.23 445.123 175.522C445.123 173.813 445.271 172.427 445.445 172.427C445.618 172.427 445.767 173.813 445.767 175.522C445.767 177.23 445.631 178.617 445.445 178.617Z" fill="#263238"/>
<path d="M445.445 190.984C445.271 190.984 445.123 189.598 445.123 187.889C445.123 186.181 445.271 184.794 445.445 184.794C445.618 184.794 445.767 186.181 445.767 187.889C445.767 189.598 445.631 190.984 445.445 190.984Z" fill="#263238"/>
<path d="M445.445 203.364C445.271 203.364 445.123 201.978 445.123 200.269C445.123 198.561 445.271 197.174 445.445 197.174C445.618 197.174 445.767 198.561 445.767 200.269C445.767 201.99 445.631 203.364 445.445 203.364Z" fill="#263238"/>
<path d="M445.445 215.757C445.271 215.757 445.123 214.37 445.123 212.662C445.123 210.953 445.271 209.567 445.445 209.567C445.618 209.567 445.767 210.953 445.767 212.662C445.767 214.37 445.631 215.757 445.445 215.757Z" fill="#263238"/>
<path d="M445.445 228.137C445.271 228.137 445.123 226.75 445.123 225.042C445.123 223.333 445.271 221.947 445.445 221.947C445.618 221.947 445.767 223.333 445.767 225.042C445.767 226.75 445.631 228.137 445.445 228.137Z" fill="#263238"/>
<path d="M445.445 240.529C445.271 240.529 445.123 239.143 445.123 237.434C445.123 235.726 445.271 234.339 445.445 234.339C445.618 234.339 445.767 235.726 445.767 237.434C445.767 239.13 445.631 240.529 445.445 240.529Z" fill="#263238"/>
<path d="M529.563 161.805C529.563 161.805 529.327 161.83 528.832 161.83C528.312 161.842 527.581 161.842 526.639 161.854C524.67 161.867 521.809 161.891 518.105 161.916C510.611 161.941 499.736 161.978 486.098 162.028C458.699 162.065 420.176 162.127 375.621 162.201H375.324L375.237 161.916C372.946 154.117 374.345 144.968 379.461 137.973C384.552 131.003 393.309 126.559 402.327 126.794L401.918 127.326C401.261 125.049 400.952 122.474 401.063 119.911C401.41 111.381 406.266 103.136 413.71 99.3105C421.068 95.4232 430.147 95.5718 437.121 99.4343L436.551 99.6324C440.527 89.9513 448.901 82.9318 457.992 79.6759C467.109 76.3704 477.217 76.8037 485.169 80.951C493.158 85.0364 498.844 92.0063 501.99 99.3229C505.223 106.677 505.669 114.575 504.059 121.347L503.749 121C508.32 120.493 512.742 121.285 516.532 122.833C520.335 124.392 523.567 126.683 526.02 129.332C527.246 130.657 528.299 132.08 529.005 133.616C529.711 135.138 530.244 136.673 530.591 138.159C531.322 141.155 531.594 143.953 531.681 146.466C531.842 151.505 531.235 155.38 530.69 157.955C530.393 159.242 530.132 160.208 529.897 160.852C529.687 161.495 529.563 161.805 529.563 161.805Z" fill="#E8505B"/>
<path d="M515.553 119.403H510.784V90.7311C510.784 83.8478 505.173 78.2397 498.286 78.2397C491.399 78.2397 485.788 83.8478 485.788 90.7311V119.403H481.019V90.7311C481.019 81.2109 488.761 73.4734 498.286 73.4734C507.812 73.4734 515.553 81.2109 515.553 90.7311V119.403Z" fill="#E0E0E0"/>
<path d="M517.696 136.921H478.889C476.572 136.921 474.69 135.039 474.69 132.724V110.849C474.69 108.534 476.572 106.652 478.889 106.652H517.696C520.012 106.652 521.895 108.534 521.895 110.849V132.724C521.895 135.039 520.012 136.921 517.696 136.921Z" fill="#E0E0E0"/>
<path d="M498.286 121.78C496.106 121.78 494.335 120.01 494.335 117.831C494.335 115.652 496.106 113.882 498.286 113.882C500.466 113.882 502.238 115.652 502.238 117.831C502.225 120.022 500.466 121.78 498.286 121.78Z" fill="#455A64"/>
<path d="M499.364 119.403H497.209V127.512H499.364V119.403Z" fill="#455A64"/>
<path d="M788.604 109.882C799.034 100.152 799.604 83.8223 789.868 73.3983C780.132 62.9744 763.794 62.4049 753.364 72.1356C744.446 80.4549 742.749 93.6025 748.521 103.766L743.269 108.669L744.52 117.384L736.369 115.094L729.792 121.222L731.043 129.938L722.893 127.647L717.244 132.921L718.012 138.232L713.045 136.846L709.751 139.916L709.255 147.988L721.307 151.021L760.412 114.562C769.603 118.684 780.776 117.186 788.604 109.882ZM784.789 78.1399C787.576 81.1358 787.415 85.8155 784.43 88.6134C781.432 91.3989 776.75 91.2379 773.951 88.2543C771.164 85.2584 771.325 80.5787 774.31 77.7809C777.307 74.983 782.002 75.1439 784.789 78.1399Z" fill="#263238"/>
<path d="M784.79 78.1405C784.74 78.1901 784.307 77.6949 783.316 77.0759C782.35 76.4816 780.702 75.8255 778.659 76.0483C776.652 76.234 774.261 77.5215 773.047 79.948C771.796 82.3002 772.044 85.7419 774.187 88.0074C776.305 90.3101 779.724 90.7929 782.152 89.7159C784.654 88.6759 786.115 86.3856 786.437 84.3925C786.809 82.3621 786.264 80.6785 785.744 79.6757C785.211 78.6481 784.74 78.1777 784.79 78.1405C784.802 78.1282 784.926 78.2396 785.149 78.4624C785.372 78.6853 785.657 79.0443 785.967 79.5642C786.574 80.567 787.23 82.3126 786.896 84.4791C786.611 86.6085 785.1 89.1092 782.387 90.273C781.062 90.8548 779.488 91.0777 777.928 90.7682C776.367 90.4958 774.856 89.6787 773.704 88.4655C772.577 87.2275 771.858 85.6676 771.697 84.0953C771.511 82.5231 771.833 80.9632 772.502 79.6881C773.84 77.0759 776.454 75.7388 778.597 75.6026C780.777 75.4169 782.486 76.1845 783.44 76.8654C783.935 77.1997 784.27 77.5215 784.48 77.7568C784.703 77.992 784.802 78.1282 784.79 78.1405Z" fill="#263238"/>
<path d="M788.605 109.883C788.605 109.883 788.481 110.007 788.233 110.242C787.961 110.49 787.589 110.824 787.094 111.257C786.029 112.074 784.443 113.3 782.09 114.439C779.749 115.553 776.664 116.593 772.911 116.902C769.17 117.187 764.748 116.704 760.314 114.748L760.524 114.711C750.442 124.145 737.039 136.686 721.494 151.244L721.383 151.356L721.234 151.319C717.456 150.365 713.368 149.35 709.182 148.298L708.934 148.236L708.946 147.989C709.095 145.475 709.268 142.715 709.429 139.917L709.442 139.793L709.529 139.706C710.544 138.753 711.684 137.701 712.811 136.636L712.935 136.512L713.108 136.562C714.657 136.995 716.366 137.466 718.075 137.948L717.679 138.295C717.444 136.636 717.171 134.816 716.911 132.984L716.886 132.823L717.01 132.712C718.781 131.053 720.714 129.258 722.658 127.438L722.795 127.314L722.968 127.363C725.545 128.081 728.319 128.861 731.119 129.641L730.71 130C730.313 127.24 729.88 124.268 729.459 121.285L729.434 121.124L729.558 121.013C730.103 120.505 730.71 119.948 731.304 119.391C732.927 117.88 734.537 116.382 736.135 114.884L736.271 114.761L736.445 114.81C739.182 115.578 741.907 116.345 744.595 117.1L744.186 117.459C743.765 114.525 743.344 111.616 742.935 108.744L742.911 108.583L743.035 108.472C744.806 106.825 746.552 105.191 748.286 103.569L748.225 103.953C746.193 100.301 745.016 96.2401 744.868 92.2042C744.781 90.1863 744.905 88.1807 745.301 86.2247C745.636 84.2687 746.267 82.3993 747.023 80.6042C750.12 73.4362 756.375 68.2737 763.076 66.1939C769.814 64.0521 776.887 64.9063 782.412 67.6547C788.023 70.3535 791.987 74.9094 794.303 79.5271C796.557 84.2191 797.226 89.0226 796.842 93.0832C796.508 97.1686 795.281 100.524 793.944 103.024C793.783 103.334 793.622 103.643 793.461 103.94C793.275 104.225 793.101 104.498 792.928 104.758C792.581 105.278 792.284 105.797 791.949 106.218C791.256 107.06 790.723 107.815 790.191 108.335C789.67 108.843 789.286 109.239 789.001 109.524C788.754 109.759 788.605 109.883 788.605 109.883C788.605 109.883 788.729 109.734 788.989 109.45C789.262 109.152 789.646 108.756 790.141 108.224C790.649 107.692 791.169 106.924 791.85 106.082C792.172 105.649 792.457 105.141 792.804 104.609C792.965 104.349 793.139 104.077 793.324 103.792C793.473 103.495 793.634 103.185 793.795 102.876C795.096 100.375 796.272 97.0448 796.57 93.0089C796.916 88.9978 796.235 84.2687 793.981 79.6633C791.677 75.1322 787.75 70.6754 782.238 68.0509C776.813 65.3768 769.876 64.5721 763.287 66.6767C756.734 68.7318 750.628 73.7952 747.605 80.8023C746.862 82.5478 746.255 84.3801 745.933 86.2866C745.549 88.1807 745.438 90.1492 745.524 92.1176C745.673 96.0668 746.825 100.028 748.819 103.581L748.943 103.804L748.757 103.978C747.023 105.599 745.276 107.234 743.505 108.88L743.604 108.608C744.013 111.48 744.434 114.389 744.868 117.323L744.942 117.806L744.471 117.67C741.771 116.915 739.058 116.16 736.321 115.392L736.631 115.318C735.033 116.816 733.422 118.314 731.8 119.824C731.205 120.381 730.611 120.938 730.053 121.446L730.152 121.161C730.586 124.145 731.007 127.116 731.403 129.877L731.478 130.359L731.007 130.223C728.208 129.443 725.421 128.663 722.857 127.933L723.166 127.859C721.222 129.679 719.289 131.474 717.518 133.133L717.617 132.86C717.877 134.692 718.137 136.512 718.385 138.171L718.459 138.654L718.001 138.518C716.279 138.035 714.582 137.552 713.034 137.119L713.331 137.045C712.192 138.109 711.064 139.162 710.036 140.115L710.136 139.904C709.962 142.702 709.789 145.463 709.64 147.976L709.417 147.667C713.604 148.719 717.679 149.759 721.469 150.712L721.197 150.786C736.804 136.289 750.256 123.786 760.363 114.402L760.463 114.315L760.586 114.364C764.947 116.32 769.307 116.816 772.998 116.568C776.714 116.296 779.773 115.293 782.114 114.216C784.456 113.126 786.053 111.926 787.131 111.146C787.639 110.725 788.023 110.403 788.295 110.18C788.469 109.982 788.605 109.883 788.605 109.883Z" fill="#263238"/>
<path d="M787.737 106.961C798.166 97.2299 798.736 80.9007 789 70.4767C779.264 60.0527 762.926 59.4833 752.497 69.214C743.578 77.5333 741.881 90.6809 747.654 100.845L747.641 100.857L742.389 105.747L743.64 114.463L735.49 112.173L728.913 118.301L730.164 127.016L722.013 124.726L716.365 130L717.133 135.311L712.166 133.924L708.871 136.994L708.375 145.066L720.428 148.099L759.532 111.64C768.736 115.763 779.908 114.265 787.737 106.961ZM783.922 75.2059C786.709 78.2018 786.548 82.8815 783.563 85.6794C780.565 88.4649 775.883 88.3039 773.083 85.3203C770.296 82.3244 770.457 77.6447 773.443 74.8592C776.44 72.049 781.135 72.2223 783.922 75.2059Z" fill="#E0E0E0"/>
<path d="M783.923 75.2065C783.873 75.256 783.44 74.7608 782.449 74.1418C781.483 73.5475 779.835 72.8914 777.791 73.1142C775.785 73.2999 773.394 74.5875 772.18 77.0139C770.929 79.3661 771.177 82.8078 773.32 85.0733C775.438 87.376 778.857 87.8588 781.284 86.7818C783.787 85.7418 785.248 83.4515 785.57 81.4584C785.942 79.428 785.397 77.7444 784.877 76.7416C784.344 75.7264 783.873 75.256 783.923 75.2065C783.935 75.1941 784.059 75.3055 784.282 75.5283C784.505 75.7512 784.79 76.1102 785.1 76.6302C785.706 77.6329 786.363 79.3785 786.029 81.545C785.744 83.6744 784.232 86.1751 781.532 87.3389C780.207 87.9207 778.634 88.1436 777.073 87.8341C775.512 87.5617 774.001 86.7446 772.849 85.5314C771.722 84.2934 771.004 82.7335 770.843 81.1612C770.644 79.589 770.979 78.0291 771.648 76.754C772.985 74.1418 775.599 72.8047 777.742 72.6686C779.922 72.4829 781.631 73.2504 782.585 73.9313C783.08 74.278 783.415 74.5875 783.626 74.8227C783.836 75.0703 783.935 75.1941 783.923 75.2065Z" fill="#263238"/>
<path d="M787.738 106.961C787.738 106.961 787.614 107.085 787.366 107.32C787.094 107.568 786.722 107.902 786.227 108.335C785.162 109.153 783.576 110.378 781.223 111.517C778.882 112.631 775.797 113.671 772.044 113.981C768.303 114.265 763.881 113.783 759.447 111.827L759.657 111.789C749.575 121.223 736.172 133.764 720.627 148.323L720.515 148.434L720.367 148.397C716.589 147.444 712.501 146.429 708.315 145.376L708.067 145.315L708.079 145.067C708.228 142.554 708.401 139.793 708.562 136.995L708.575 136.871L708.661 136.785C709.677 135.831 710.817 134.779 711.944 133.714L712.068 133.591L712.241 133.64C713.79 134.073 715.499 134.544 717.208 135.027L716.812 135.373C716.577 133.714 716.304 131.895 716.044 130.062L716.019 129.901L716.143 129.79C717.914 128.131 719.847 126.336 721.791 124.516L721.928 124.392L722.101 124.442C724.677 125.16 727.452 125.94 730.251 126.72L729.843 127.079C729.446 124.318 729.013 121.347 728.592 118.363L728.567 118.202L728.691 118.091C729.236 117.583 729.843 117.026 730.437 116.469C732.06 114.959 733.67 113.461 735.268 111.963L735.404 111.839L735.578 111.889C738.315 112.656 741.04 113.424 743.728 114.179L743.319 114.538C742.898 111.604 742.477 108.694 742.068 105.822L742.044 105.661L742.167 105.55C743.939 103.903 745.685 102.269 747.419 100.647L747.357 101.031C745.326 97.3791 744.149 93.3185 744.001 89.2826C743.914 87.2647 744.038 85.2591 744.434 83.3031C744.769 81.347 745.4 79.4777 746.156 77.6826C749.253 70.5145 755.508 65.3521 762.209 63.2722C768.947 61.1305 776.02 61.9847 781.545 64.7331C787.156 67.4319 791.12 71.9877 793.436 76.6055C795.69 81.2975 796.359 86.101 795.975 90.1616C795.641 94.247 794.414 97.602 793.077 100.103C792.916 100.412 792.755 100.722 792.594 101.019C792.408 101.304 792.234 101.576 792.061 101.836C791.714 102.356 791.417 102.876 791.082 103.297C790.389 104.139 789.856 104.894 789.323 105.414C788.816 105.921 788.419 106.318 788.134 106.602C787.887 106.837 787.738 106.961 787.738 106.961C787.738 106.961 787.862 106.813 788.122 106.528C788.394 106.231 788.778 105.835 789.274 105.302C789.782 104.77 790.302 104.002 790.983 103.161C791.305 102.727 791.59 102.22 791.937 101.687C792.098 101.427 792.271 101.155 792.457 100.87C792.606 100.573 792.767 100.264 792.928 99.9542C794.229 97.4534 795.405 94.1232 795.703 90.0873C796.049 86.0762 795.368 81.347 793.114 76.7417C790.81 72.2106 786.883 67.7538 781.371 65.1292C775.946 62.4552 769.009 61.6504 762.42 63.755C755.867 65.8101 749.76 70.8736 746.738 77.8806C745.995 79.6262 745.388 81.4584 745.066 83.365C744.682 85.2591 744.57 87.2275 744.657 89.196C744.806 93.1452 745.958 97.1068 747.952 100.66L748.076 100.883L747.89 101.056C746.156 102.678 744.409 104.312 742.638 105.958L742.737 105.686C743.146 108.558 743.567 111.468 744.001 114.402L744.075 114.884L743.604 114.748C740.904 113.993 738.191 113.238 735.454 112.47L735.763 112.396C734.166 113.894 732.555 115.392 730.933 116.902C730.338 117.46 729.744 118.017 729.186 118.524L729.285 118.239C729.719 121.223 730.14 124.194 730.536 126.955L730.611 127.438L730.14 127.302C727.34 126.522 724.554 125.742 721.99 125.011L722.299 124.937C720.354 126.757 718.422 128.552 716.651 130.211L716.75 129.939C717.01 131.771 717.27 133.591 717.518 135.25L717.592 135.732L717.134 135.596C715.412 135.113 713.715 134.631 712.167 134.197L712.464 134.123C711.325 135.188 710.197 136.24 709.169 137.193L709.268 136.983C709.095 139.781 708.922 142.541 708.773 145.055L708.55 144.745C712.737 145.797 716.812 146.837 720.602 147.791L720.33 147.865C735.937 133.368 749.389 120.864 759.496 111.48L759.595 111.393L759.719 111.443C764.079 113.399 768.44 113.894 772.131 113.646C775.847 113.374 778.906 112.371 781.247 111.294C783.588 110.205 785.186 109.004 786.264 108.224C786.772 107.803 787.156 107.481 787.428 107.258C787.602 107.06 787.738 106.961 787.738 106.961Z" fill="#263238"/>
<path d="M785.372 104.943C785.285 104.869 786.883 103.594 788.84 100.573C789.844 99.0876 790.785 97.0697 791.491 94.6308C792.185 92.192 792.569 89.2703 792.234 86.0886C791.887 82.9193 790.884 79.4653 788.828 76.3208C786.772 73.201 783.848 70.2422 780.058 68.3852C778.188 67.4072 776.119 66.7139 773.952 66.3177C772.874 66.0825 771.759 66.033 770.632 65.934C769.505 65.9587 768.365 65.934 767.238 66.1073C762.667 66.5901 758.159 68.67 754.579 71.9507C751.049 75.2933 748.658 79.651 747.865 84.1697C747.617 85.2963 747.556 86.4229 747.456 87.5495C747.469 88.676 747.444 89.7902 747.605 90.8797C747.84 93.0709 748.385 95.1879 749.24 97.1068C750.838 101.019 753.588 104.139 756.561 106.404C759.571 108.67 762.94 109.908 766.074 110.477C769.232 111.034 772.168 110.861 774.658 110.329C777.147 109.784 779.216 108.992 780.777 108.088C783.923 106.355 785.298 104.844 785.372 104.943C785.384 104.956 785.298 105.042 785.112 105.203C784.901 105.389 784.641 105.624 784.307 105.921C783.96 106.243 783.502 106.627 782.919 107.011C782.35 107.419 781.706 107.902 780.888 108.311C779.327 109.252 777.246 110.093 774.732 110.675C772.217 111.245 769.22 111.455 765.999 110.911C762.791 110.366 759.335 109.115 756.239 106.825C753.179 104.522 750.343 101.341 748.695 97.3297C747.816 95.3489 747.246 93.1823 746.998 90.9292C746.825 89.8026 746.85 88.6637 746.837 87.4999C746.936 86.3486 746.986 85.1849 747.246 84.0212C748.063 79.3787 750.516 74.8847 754.145 71.4431C757.836 68.0633 762.481 65.934 767.176 65.4388C768.34 65.2654 769.517 65.2902 770.669 65.2778C771.821 65.3769 772.973 65.4264 774.075 65.674C776.305 66.0825 778.435 66.8006 780.343 67.8157C784.232 69.747 787.218 72.7925 789.299 75.9989C791.38 79.2425 792.383 82.7832 792.705 86.0143C793.015 89.2703 792.606 92.2415 791.863 94.7051C791.107 97.1687 790.116 99.199 789.076 100.685C788.605 101.465 788.085 102.084 787.639 102.616C787.218 103.173 786.796 103.594 786.45 103.928C786.128 104.238 785.867 104.485 785.669 104.683C785.471 104.869 785.384 104.956 785.372 104.943Z" fill="#263238"/>
<path d="M784.319 86.6209C784.27 86.5714 784.864 86.0638 785.583 84.9125C786.289 83.7735 787.069 81.8423 786.809 79.4282C786.673 78.2397 786.289 76.9522 785.508 75.7637C784.728 74.6 783.638 73.4981 782.214 72.8049C780.814 72.0868 779.117 71.7526 777.42 71.963C775.711 72.1487 774.038 72.9287 772.701 74.1543C771.388 75.4047 770.496 77.0264 770.186 78.7101C769.852 80.3938 770.075 82.1022 770.694 83.5507C771.289 85.0115 772.304 86.1876 773.419 87.0419C774.546 87.8961 775.81 88.3665 776.986 88.5894C779.377 89.0227 781.359 88.3789 782.536 87.7475C783.725 87.1161 784.27 86.5714 784.319 86.6209C784.332 86.6333 784.208 86.7819 783.935 87.0295C783.675 87.2895 783.242 87.6237 782.647 87.9827C781.47 88.6884 779.427 89.4436 776.9 89.0474C775.661 88.8493 774.311 88.3665 773.097 87.4752C771.908 86.5838 770.793 85.3458 770.149 83.7859C769.468 82.2508 769.22 80.4062 769.567 78.5987C769.889 76.7788 770.843 75.0333 772.255 73.6838C773.691 72.3592 775.512 71.5297 777.346 71.344C779.179 71.1212 780.987 71.505 782.486 72.2849C783.997 73.0401 785.162 74.2286 785.967 75.4913C786.772 76.7541 787.156 78.1406 787.267 79.391C787.49 81.9413 786.598 83.9221 785.806 85.0487C785.409 85.6305 785.038 86.0267 784.765 86.2743C784.48 86.5219 784.332 86.6333 784.319 86.6209Z" fill="#263238"/>
<path d="M717.283 146.664C717.159 146.528 725.966 138.122 736.953 127.883C747.94 117.645 756.932 109.45 757.056 109.573C757.18 109.71 748.373 118.116 737.386 128.354C726.412 138.604 717.406 146.8 717.283 146.664Z" fill="#263238"/>
<path d="M679.231 258.505C679.231 258.678 677.843 258.827 676.134 258.827C674.425 258.827 673.037 258.678 673.037 258.505C673.037 258.332 674.425 258.183 676.134 258.183C677.843 258.183 679.231 258.332 679.231 258.505Z" fill="#263238"/>
<path d="M691.617 258.505C691.617 258.678 690.23 258.827 688.521 258.827C686.811 258.827 685.424 258.678 685.424 258.505C685.424 258.332 686.811 258.183 688.521 258.183C690.23 258.183 691.617 258.332 691.617 258.505Z" fill="#263238"/>
<path d="M704.004 258.505C704.004 258.678 702.617 258.827 700.907 258.827C699.198 258.827 697.811 258.678 697.811 258.505C697.811 258.332 699.198 258.183 700.907 258.183C702.617 258.183 704.004 258.332 704.004 258.505Z" fill="#263238"/>
<path d="M716.391 258.505C716.391 258.678 715.003 258.827 713.294 258.827C711.585 258.827 710.197 258.678 710.197 258.505C710.197 258.332 711.585 258.183 713.294 258.183C715.003 258.183 716.391 258.332 716.391 258.505Z" fill="#263238"/>
<path d="M728.777 258.505C728.777 258.678 727.39 258.827 725.681 258.827C723.971 258.827 722.584 258.678 722.584 258.505C722.584 258.332 723.971 258.183 725.681 258.183C727.39 258.183 728.777 258.332 728.777 258.505Z" fill="#263238"/>
<path d="M741.164 258.505C741.164 258.678 739.777 258.827 738.067 258.827C736.358 258.827 734.971 258.678 734.971 258.505C734.971 258.332 736.358 258.183 738.067 258.183C739.777 258.183 741.164 258.332 741.164 258.505Z" fill="#263238"/>
<path d="M751.68 256.635C751.816 256.635 751.928 257.403 751.977 258.517L751.99 258.802L751.68 258.814C751.309 258.827 750.9 258.839 750.466 258.839C748.757 258.839 747.37 258.691 747.37 258.517C747.37 258.344 748.757 258.195 750.466 258.195C750.9 258.195 751.309 258.208 751.68 258.22L751.383 258.517C751.432 257.403 751.544 256.635 751.68 256.635Z" fill="#263238"/>
<path d="M751.68 244.255C751.854 244.255 752.002 245.642 752.002 247.35C752.002 249.059 751.854 250.445 751.68 250.445C751.507 250.445 751.358 249.059 751.358 247.35C751.358 245.63 751.494 244.255 751.68 244.255Z" fill="#263238"/>
<path d="M751.68 231.875C751.854 231.875 752.002 233.262 752.002 234.97C752.002 236.679 751.854 238.065 751.68 238.065C751.507 238.065 751.358 236.679 751.358 234.97C751.358 233.25 751.494 231.875 751.68 231.875Z" fill="#263238"/>
<path d="M751.68 219.496C751.854 219.496 752.002 220.882 752.002 222.591C752.002 224.299 751.854 225.686 751.68 225.686C751.507 225.686 751.358 224.299 751.358 222.591C751.358 220.87 751.494 219.496 751.68 219.496Z" fill="#263238"/>
<path d="M751.68 207.115C751.854 207.115 752.002 208.502 752.002 210.21C752.002 211.919 751.854 213.305 751.68 213.305C751.507 213.305 751.358 211.919 751.358 210.21C751.358 208.49 751.494 207.115 751.68 207.115Z" fill="#263238"/>
<path d="M751.68 194.735C751.854 194.735 752.002 196.122 752.002 197.83C752.002 199.539 751.854 200.925 751.68 200.925C751.507 200.925 751.358 199.539 751.358 197.83C751.358 196.11 751.494 194.735 751.68 194.735Z" fill="#263238"/>
<path d="M751.68 182.355C751.854 182.355 752.002 183.742 752.002 185.45C752.002 187.159 751.854 188.545 751.68 188.545C751.507 188.545 751.358 187.159 751.358 185.45C751.358 183.73 751.494 182.355 751.68 182.355Z" fill="#263238"/>
<path d="M751.68 169.975C751.854 169.975 752.002 171.362 752.002 173.07C752.002 174.779 751.854 176.165 751.68 176.165C751.507 176.165 751.358 174.779 751.358 173.07C751.358 171.35 751.494 169.975 751.68 169.975Z" fill="#263238"/>
<path d="M751.68 157.595C751.854 157.595 752.002 158.982 752.002 160.69C752.002 162.399 751.854 163.785 751.68 163.785C751.507 163.785 751.358 162.399 751.358 160.69C751.358 158.97 751.494 157.595 751.68 157.595Z" fill="#263238"/>
<path d="M751.68 145.215C751.854 145.215 752.002 146.602 752.002 148.31C752.002 150.019 751.854 151.405 751.68 151.405C751.507 151.405 751.358 150.019 751.358 148.31C751.358 146.59 751.494 145.215 751.68 145.215Z" fill="#263238"/>
<path d="M751.68 132.835C751.854 132.835 752.002 134.222 752.002 135.93C752.002 137.639 751.854 139.025 751.68 139.025C751.507 139.025 751.358 137.639 751.358 135.93C751.358 134.21 751.494 132.835 751.68 132.835Z" fill="#263238"/>
<path d="M658.805 381.896C658.805 382.069 657.418 382.218 655.708 382.218C653.999 382.218 652.612 382.069 652.612 381.896C652.612 381.723 653.999 381.574 655.708 381.574C657.418 381.574 658.805 381.723 658.805 381.896Z" fill="#263238"/>
<path d="M671.192 381.896C671.192 382.069 669.805 382.218 668.095 382.218C666.386 382.218 664.999 382.069 664.999 381.896C664.999 381.723 666.386 381.574 668.095 381.574C669.805 381.574 671.192 381.723 671.192 381.896Z" fill="#263238"/>
<path d="M683.578 381.896C683.578 382.069 682.191 382.218 680.482 382.218C678.772 382.218 677.385 382.069 677.385 381.896C677.385 381.723 678.772 381.574 680.482 381.574C682.191 381.574 683.578 381.723 683.578 381.896Z" fill="#263238"/>
<path d="M695.965 381.896C695.965 382.069 694.578 382.218 692.868 382.218C691.159 382.218 689.772 382.069 689.772 381.896C689.772 381.723 691.159 381.574 692.868 381.574C694.578 381.574 695.965 381.723 695.965 381.896Z" fill="#263238"/>
<path d="M708.352 381.896C708.352 382.069 706.964 382.218 705.255 382.218C703.546 382.218 702.158 382.069 702.158 381.896C702.158 381.723 703.546 381.574 705.255 381.574C706.964 381.574 708.352 381.723 708.352 381.896Z" fill="#263238"/>
<path d="M720.738 381.896C720.738 382.069 719.351 382.218 717.642 382.218C715.932 382.218 714.545 382.069 714.545 381.896C714.545 381.723 715.932 381.574 717.642 381.574C719.351 381.574 720.738 381.723 720.738 381.896Z" fill="#263238"/>
<path d="M733.125 381.896C733.125 382.069 731.738 382.218 730.028 382.218C728.319 382.218 726.932 382.069 726.932 381.896C726.932 381.723 728.319 381.574 730.028 381.574C731.738 381.574 733.125 381.723 733.125 381.896Z" fill="#263238"/>
<path d="M745.512 381.896C745.512 382.069 744.125 382.218 742.415 382.218C740.706 382.218 739.318 382.069 739.318 381.896C739.318 381.723 740.706 381.574 742.415 381.574C744.125 381.574 745.512 381.723 745.512 381.896Z" fill="#263238"/>
<path d="M757.898 381.896C757.898 382.069 756.511 382.218 754.802 382.218C753.092 382.218 751.705 382.069 751.705 381.896C751.705 381.723 753.092 381.574 754.802 381.574C756.511 381.574 757.898 381.723 757.898 381.896Z" fill="#263238"/>
<path d="M770.285 381.896C770.285 382.069 768.898 382.218 767.188 382.218C765.479 382.218 764.092 382.069 764.092 381.896C764.092 381.723 765.479 381.574 767.188 381.574C768.898 381.574 770.285 381.723 770.285 381.896Z" fill="#263238"/>
<path d="M781.52 380.745C781.619 380.745 781.706 381.19 781.755 381.908L781.768 382.131L781.495 382.156C780.975 382.205 780.293 382.23 779.563 382.23C777.853 382.23 776.466 382.082 776.466 381.908C776.466 381.735 777.853 381.586 779.563 381.586C780.306 381.586 780.975 381.611 781.495 381.661L781.247 381.908C781.322 381.19 781.421 380.745 781.52 380.745Z" fill="#263238"/>
<path d="M781.644 368.365C781.817 368.365 781.953 369.751 781.941 371.46C781.929 373.168 781.768 374.555 781.582 374.555C781.408 374.555 781.272 373.168 781.284 371.46C781.309 369.751 781.47 368.365 781.644 368.365Z" fill="#263238"/>
<path d="M781.768 355.985C781.941 355.985 782.077 357.371 782.065 359.08C782.053 360.788 781.891 362.175 781.706 362.175C781.532 362.175 781.396 360.788 781.408 359.08C781.433 357.371 781.594 355.985 781.768 355.985Z" fill="#263238"/>
<path d="M781.891 343.605C782.065 343.605 782.201 344.991 782.189 346.7C782.176 348.408 782.015 349.795 781.83 349.795C781.644 349.795 781.52 348.408 781.532 346.7C781.557 344.991 781.718 343.605 781.891 343.605Z" fill="#263238"/>
<path d="M740.904 304.806L743.183 346.638C743.27 348.124 744.496 349.3 745.983 349.312L821.306 349.869C822.867 349.882 824.142 348.631 824.155 347.071L824.39 314.5C824.403 312.927 823.139 311.652 821.566 311.652L775.24 311.615C774.497 311.615 773.778 311.318 773.246 310.786L765.256 302.8C764.736 302.28 764.018 301.983 763.274 301.971L743.741 301.822C742.118 301.81 740.817 303.184 740.904 304.806Z" fill="#E8505B"/>
<path d="M824.48 306.739L742.171 306.136L741.811 355.285L824.12 355.887L824.48 306.739Z" fill="#F5F5F5"/>
<path d="M735.565 310.488L741.474 361.791C741.573 362.707 742.353 363.388 743.27 363.4L823.473 363.982C824.427 363.995 825.22 363.264 825.294 362.323L829.704 311.095C829.791 310.043 828.961 309.127 827.908 309.127L737.374 308.458C736.296 308.458 735.441 309.411 735.565 310.488Z" fill="#E8505B"/>
<path d="M668.355 528.587H253.773C243.802 528.587 235.726 520.515 235.726 510.549V248.762C235.726 238.796 243.802 230.724 253.773 230.724H668.355C678.326 230.724 686.402 238.796 686.402 248.762V510.562C686.402 520.515 678.314 528.587 668.355 528.587Z" fill="#263238"/>
<path d="M683.108 532.623H238.934C226.758 532.623 216.886 522.756 216.886 510.586V506.563H705.156V510.586C705.143 522.756 695.284 532.623 683.108 532.623Z" fill="#263238"/>
<path d="M673.037 242.559H247.828V494.096H673.037V242.559Z" fill="#455A64"/>
<path d="M416.633 506.563L422.69 516.195H507.948L513.584 506.563H416.633Z" fill="#455A64"/>
<path d="M661.108 493.304H260.647C258.405 493.304 256.596 491.484 256.596 489.256V255.138C256.596 252.897 258.417 251.089 260.647 251.089H661.108C663.35 251.089 665.158 252.909 665.158 255.138V489.256C665.158 491.484 663.337 493.304 661.108 493.304Z" fill="#EBEBEB"/>
<path d="M665.159 268.83H256.585V493.304H665.159V268.83Z" fill="#FAFAFA"/>
<path d="M290.091 260.436C290.091 262.244 288.629 263.692 286.833 263.692C285.037 263.692 283.576 262.231 283.576 260.436C283.576 258.641 285.037 257.18 286.833 257.18C288.629 257.168 290.091 258.629 290.091 260.436Z" fill="#263238"/>
<path d="M270.322 260.436C270.322 262.244 268.86 263.692 267.064 263.692C265.268 263.692 263.807 262.231 263.807 260.436C263.807 258.641 265.268 257.18 267.064 257.18C268.86 257.168 270.322 258.629 270.322 260.436Z" fill="#263238"/>
<path d="M279.81 260.436C279.81 262.244 278.349 263.692 276.553 263.692C274.756 263.692 273.295 262.231 273.295 260.436C273.295 258.641 274.756 257.18 276.553 257.18C278.349 257.168 279.81 258.629 279.81 260.436Z" fill="#263238"/>
<path d="M682.525 506.563C682.525 506.724 582.503 506.86 459.144 506.86C335.736 506.86 235.738 506.724 235.738 506.563C235.738 506.402 335.748 506.266 459.144 506.266C582.503 506.266 682.525 506.402 682.525 506.563Z" fill="#455A64"/>
<path d="M378.136 381.909H284.901V388.148H378.136V381.909Z" fill="#E0E0E0"/>
<path d="M498.559 295.36H405.324V301.6H498.559V295.36Z" fill="#E0E0E0"/>
<path d="M637.227 318.572C637.227 318.733 585.315 318.87 521.276 318.87C457.224 318.87 405.324 318.733 405.324 318.572C405.324 318.412 457.224 318.275 521.276 318.275C585.315 318.288 637.227 318.412 637.227 318.572Z" fill="#E0E0E0"/>
<path d="M637.227 332.191C637.227 332.352 585.315 332.488 521.276 332.488C457.224 332.488 405.324 332.352 405.324 332.191C405.324 332.03 457.224 331.894 521.276 331.894C585.315 331.894 637.227 332.03 637.227 332.191Z" fill="#E0E0E0"/>
<path d="M637.227 345.796C637.227 345.957 585.315 346.093 521.276 346.093C457.224 346.093 405.324 345.957 405.324 345.796C405.324 345.635 457.224 345.499 521.276 345.499C585.315 345.511 637.227 345.635 637.227 345.796Z" fill="#E0E0E0"/>
<path d="M637.227 359.414C637.227 359.575 585.315 359.711 521.276 359.711C457.224 359.711 405.324 359.575 405.324 359.414C405.324 359.253 457.224 359.117 521.276 359.117C585.315 359.117 637.227 359.253 637.227 359.414Z" fill="#E0E0E0"/>
<path d="M637.227 373.02C637.227 373.181 585.315 373.317 521.276 373.317C457.224 373.317 405.324 373.181 405.324 373.02C405.324 372.859 457.224 372.723 521.276 372.723C585.315 372.735 637.227 372.859 637.227 373.02Z" fill="#E0E0E0"/>
<path d="M495.846 386.638C495.846 386.799 475.581 386.935 450.585 386.935C425.589 386.935 405.324 386.799 405.324 386.638C405.324 386.477 425.589 386.341 450.585 386.341C475.581 386.341 495.846 386.477 495.846 386.638Z" fill="#E0E0E0"/>
<path d="M635.531 413.044C635.531 413.205 601.405 413.342 559.328 413.342C517.225 413.342 483.113 413.205 483.113 413.044C483.113 412.884 517.225 412.747 559.328 412.747C601.405 412.76 635.531 412.884 635.531 413.044Z" fill="#E0E0E0"/>
<path d="M635.531 427.504C635.531 427.665 601.405 427.801 559.328 427.801C517.225 427.801 483.113 427.665 483.113 427.504C483.113 427.343 517.225 427.207 559.328 427.207C601.405 427.207 635.531 427.343 635.531 427.504Z" fill="#E0E0E0"/>
<path d="M635.531 441.952C635.531 442.113 601.405 442.249 559.328 442.249C517.225 442.249 483.113 442.113 483.113 441.952C483.113 441.791 517.225 441.655 559.328 441.655C601.405 441.655 635.531 441.791 635.531 441.952Z" fill="#E0E0E0"/>
<path d="M635.531 456.399C635.531 456.56 601.405 456.696 559.328 456.696C517.225 456.696 483.113 456.56 483.113 456.399C483.113 456.238 517.225 456.102 559.328 456.102C601.405 456.102 635.531 456.238 635.531 456.399Z" fill="#E0E0E0"/>
<path d="M378.371 411.67C378.371 411.831 358.032 411.967 332.937 411.967C307.841 411.967 287.502 411.831 287.502 411.67C287.502 411.509 307.841 411.373 332.937 411.373C358.032 411.373 378.371 411.509 378.371 411.67Z" fill="#E0E0E0"/>
<path d="M378.371 423.01C378.371 423.171 358.032 423.307 332.937 423.307C307.841 423.307 287.502 423.171 287.502 423.01C287.502 422.849 307.841 422.713 332.937 422.713C358.032 422.726 378.371 422.849 378.371 423.01Z" fill="#E0E0E0"/>
<path d="M378.371 434.363C378.371 434.524 358.032 434.66 332.937 434.66C307.841 434.66 287.502 434.524 287.502 434.363C287.502 434.202 307.841 434.066 332.937 434.066C358.032 434.066 378.371 434.202 378.371 434.363Z" fill="#E0E0E0"/>
<path d="M378.371 445.715C378.371 445.876 358.032 446.012 332.937 446.012C307.841 446.012 287.502 445.876 287.502 445.715C287.502 445.554 307.841 445.418 332.937 445.418C358.032 445.418 378.371 445.554 378.371 445.715Z" fill="#E0E0E0"/>
<path d="M378.371 457.055C378.371 457.216 358.032 457.352 332.937 457.352C307.841 457.352 287.502 457.216 287.502 457.055C287.502 456.894 307.841 456.758 332.937 456.758C358.032 456.771 378.371 456.894 378.371 457.055Z" fill="#E0E0E0"/>
<path d="M471.407 406.161H405.262V470.129H471.407V406.161Z" fill="#F5F5F5"/>
<path d="M410.403 464.644L428.698 431.726L443.661 452.772L452.753 441.593L466.291 464.644H410.403Z" fill="#EBEBEB"/>
<path d="M450.04 425.325C450.04 427.95 447.91 430.079 445.284 430.079C442.658 430.079 440.527 427.95 440.527 425.325C440.527 422.701 442.658 420.572 445.284 420.572C447.91 420.572 450.04 422.701 450.04 425.325Z" fill="#EBEBEB"/>
<path d="M466.291 464.83C466.291 464.83 466.279 464.731 466.279 464.57C466.279 464.384 466.267 464.137 466.267 463.827C466.254 463.146 466.254 462.181 466.23 460.943C466.217 458.405 466.192 454.74 466.155 450.086C466.118 440.739 466.068 427.442 466.019 411.46L466.291 411.732C450.102 411.745 430.915 411.757 410.403 411.782C410.328 411.844 410.997 411.187 410.712 411.472V411.485V411.509V411.571V411.683V411.906V412.364V413.28V415.1C410.712 416.313 410.712 417.514 410.712 418.715C410.712 421.116 410.712 423.481 410.712 425.833C410.712 430.537 410.712 435.13 410.7 439.612C410.688 448.575 410.675 457.043 410.675 464.83L410.403 464.558C427.088 464.62 441.023 464.669 450.821 464.694C455.701 464.719 459.553 464.743 462.216 464.768C463.517 464.781 464.52 464.793 465.239 464.805C465.561 464.818 465.821 464.818 466.019 464.818C466.192 464.818 466.279 464.818 466.291 464.83C466.291 464.83 466.217 464.843 466.044 464.843C465.846 464.843 465.61 464.855 465.288 464.855C464.582 464.867 463.591 464.867 462.315 464.892C459.665 464.904 455.837 464.929 450.982 464.966C441.147 465.003 427.15 465.053 410.39 465.102H410.118V464.83C410.106 457.043 410.093 448.575 410.093 439.612C410.093 435.13 410.093 430.525 410.081 425.833C410.081 423.481 410.081 421.104 410.081 418.715C410.081 417.514 410.081 416.313 410.081 415.1V413.28V412.364V411.906V411.683V411.571V411.509V411.485V411.472C409.796 411.745 410.465 411.076 410.403 411.15C430.915 411.163 450.102 411.187 466.291 411.2H466.564V411.472C466.502 427.517 466.465 440.887 466.428 450.271C466.403 454.901 466.378 458.553 466.353 461.079C466.341 462.292 466.329 463.233 466.316 463.902C466.304 464.199 466.304 464.434 466.304 464.62C466.304 464.756 466.291 464.83 466.291 464.83Z" fill="#EBEBEB"/>
<path d="M376.377 284.713H286.66V371.472H376.377V284.713Z" fill="#F5F5F5"/>
<path d="M293.609 364.044L318.432 319.402L338.734 347.938L351.071 332.785L369.415 364.044H293.609Z" fill="#E0E0E0"/>
<path d="M347.379 310.724C347.379 314.289 344.493 317.174 340.926 317.174C337.359 317.174 334.473 314.289 334.473 310.724C334.473 307.158 337.359 304.274 340.926 304.274C344.493 304.274 347.379 307.158 347.379 310.724Z" fill="#E0E0E0"/>
<path d="M369.415 364.292C369.403 364.28 369.403 364.168 369.391 363.933C369.391 363.673 369.378 363.339 369.366 362.918C369.353 361.989 369.341 360.689 369.329 359.018C369.304 355.577 369.279 350.6 369.23 344.286C369.18 331.609 369.118 313.571 369.044 291.906L369.415 292.278C347.466 292.29 321.429 292.315 293.621 292.339C293.522 292.426 294.426 291.535 294.042 291.919V291.943V291.98V292.055V292.216V292.525V293.144V294.382V296.846C294.042 298.48 294.042 300.114 294.042 301.748C294.042 305.004 294.042 308.223 294.042 311.405C294.042 317.78 294.03 324.02 294.03 330.098C294.018 342.243 294.005 353.732 293.993 364.304L293.621 363.933C316.252 364.007 335.141 364.082 348.432 364.119C355.059 364.156 360.286 364.193 363.891 364.218C365.65 364.23 367.025 364.255 367.991 364.267C368.437 364.28 368.784 364.28 369.056 364.292C369.291 364.28 369.415 364.28 369.415 364.292C369.428 364.304 369.316 364.304 369.081 364.317C368.821 364.317 368.486 364.329 368.053 364.342C367.099 364.354 365.761 364.366 364.027 364.379C360.435 364.403 355.245 364.428 348.655 364.478C335.315 364.527 316.326 364.589 293.609 364.663H293.237V364.292C293.225 353.72 293.213 342.243 293.2 330.086C293.2 324.008 293.188 317.768 293.188 311.392C293.188 308.211 293.188 304.979 293.188 301.736C293.188 300.114 293.188 298.48 293.188 296.833V294.37V293.132V292.513V292.203V292.042V291.968V291.931V291.906C292.804 292.278 293.708 291.374 293.621 291.46C321.442 291.485 347.466 291.498 369.415 291.522H369.787V291.894C369.713 313.658 369.651 331.782 369.601 344.509C369.564 350.785 369.527 355.737 369.502 359.154C369.49 360.801 369.465 362.076 369.465 362.992C369.452 363.401 369.452 363.71 369.44 363.97C369.44 364.193 369.428 364.292 369.415 364.292Z" fill="#E0E0E0"/>
<path d="M388.404 317.681L392.838 326.657L402.748 328.105L395.576 335.087L397.261 344.954L388.404 340.287L379.535 344.954L381.232 335.087L374.06 328.105L383.97 326.657L388.404 317.681Z" fill="#E8505B"/>
<path d="M419.618 286.483L424.053 295.459L433.962 296.895L426.79 303.89L428.487 313.757L419.618 309.089L410.75 313.757L412.447 303.89L405.275 296.895L415.184 295.459L419.618 286.483Z" fill="#E8505B"/>
<path d="M461.337 274.24L465.771 283.215L475.681 284.651L468.509 291.634L470.206 301.5L461.337 296.846L452.468 301.5L454.165 291.634L446.993 284.651L456.902 283.215L461.337 274.24Z" fill="#E8505B"/>
<path d="M504.517 286.781L508.951 295.756L518.86 297.192L511.689 304.175L513.386 314.042L504.517 309.387L495.648 314.042L497.345 304.175L490.173 297.192L500.082 295.756L504.517 286.781Z" fill="#E8505B"/>
<path d="M534.269 316.517L538.704 325.493L548.613 326.929L541.441 333.924L543.138 343.778L534.269 339.123L525.413 343.778L527.098 333.924L519.926 326.929L529.847 325.493L534.269 316.517Z" fill="#E8505B"/>
<path d="M545.071 359.674L549.505 368.65L559.414 370.086L552.243 377.068L553.927 386.935L545.071 382.28L536.202 386.935L537.899 377.068L530.727 370.086L540.636 368.65L545.071 359.674Z" fill="#E8505B"/>
<path d="M534.567 402.534L539.001 411.509L548.911 412.945L541.739 419.94L543.436 429.807L534.567 425.14L525.698 429.807L527.395 419.94L520.223 412.945L530.132 411.509L534.567 402.534Z" fill="#E8505B"/>
<path d="M502.956 432.283L507.39 441.258L517.3 442.694L510.128 449.677L511.825 459.543L502.956 454.889L494.099 459.543L495.796 449.677L488.625 442.694L498.534 441.258L502.956 432.283Z" fill="#E8505B"/>
<path d="M460.494 444.539L464.929 453.515L474.838 454.951L467.666 461.945L469.363 471.8L460.494 467.145L451.638 471.8L453.322 461.945L446.151 454.951L456.06 453.515L460.494 444.539Z" fill="#E8505B"/>
<path d="M419.941 432.295L424.375 441.271L434.284 442.707L427.112 449.689L428.809 459.556L419.941 454.901L411.084 459.556L412.769 449.689L405.609 442.707L415.518 441.271L419.941 432.295Z" fill="#E8505B"/>
<path d="M387.859 401.766L392.281 410.742L402.19 412.178L395.031 419.16L396.716 429.027L387.859 424.372L378.99 429.027L380.687 419.16L373.515 412.178L383.425 410.742L387.859 401.766Z" fill="#E8505B"/>
<path d="M377.058 359.724L381.492 368.699L391.402 370.135L384.23 377.118L385.927 386.984L377.058 382.33L368.189 386.984L369.886 377.118L362.714 370.135L372.623 368.699L377.058 359.724Z" fill="#E8505B"/>
<path d="M491.919 390.513H483.249V343.345C483.249 332.24 474.206 323.215 463.108 323.215C452.01 323.215 442.967 332.252 442.967 343.345V390.513H434.297V343.345C434.297 327.461 447.228 314.549 463.108 314.549C479 314.549 491.919 327.474 491.919 343.345V390.513Z" fill="#263238"/>
<path d="M494.744 419.334H431.473C427.496 419.334 424.276 416.115 424.276 412.141V376.722C424.276 372.748 427.496 369.529 431.473 369.529H494.744C498.72 369.529 501.94 372.748 501.94 376.722V412.141C501.94 416.102 498.72 419.334 494.744 419.334Z" fill="#E8505B"/>
<path d="M469.599 387.938C469.599 391.516 466.688 394.425 463.108 394.425C459.528 394.425 456.617 391.516 456.617 387.938C456.617 384.36 459.528 381.451 463.108 381.451C466.7 381.451 469.599 384.36 469.599 387.938Z" fill="#263238"/>
<path d="M464.879 390.513H461.337V403.859H464.879V390.513Z" fill="#263238"/>
<path d="M428.413 414.604C428.24 414.604 428.091 406.297 428.091 396.059C428.091 385.808 428.24 377.514 428.413 377.514C428.586 377.514 428.735 385.821 428.735 396.059C428.735 406.297 428.599 414.604 428.413 414.604Z" fill="#FAFAFA"/>
<path d="M458.03 396.257C458.005 396.294 457.72 396.158 457.274 395.824C456.816 395.502 456.209 394.932 455.602 394.115C454.388 392.531 453.285 389.646 454.004 386.539C454.759 383.431 457.039 381.351 458.835 380.472C459.739 380.014 460.544 379.792 461.089 379.705C461.646 379.618 461.956 379.618 461.969 379.655C461.993 379.779 460.742 379.891 459.058 380.869C457.398 381.81 455.329 383.815 454.636 386.675C453.967 389.547 454.92 392.271 455.986 393.855C457.026 395.489 458.104 396.158 458.03 396.257Z" fill="#FAFAFA"/>
<path d="M189.908 347.418C188.917 350.191 189.202 353.286 190.106 356.096C191.01 358.894 192.521 361.457 194.02 364.007C195.965 359.018 197.922 354.017 199.284 348.842C199.582 347.703 199.805 346.341 199 345.487C198.38 344.843 197.389 344.744 196.497 344.793C193.884 344.954 191.332 346.031 189.412 347.814" fill="#263238"/>
<path d="M80.6821 486.272L60.4175 532.586H88.3123L108.181 485.913L80.6821 486.272Z" fill="#263238"/>
<path d="M201.18 532.027C228.517 522.977 209.776 486.84 209.776 486.84L90.2818 498.069C80.6945 498.007 72.8785 505.757 72.8785 515.351C72.8785 524.896 80.6202 532.634 90.1703 532.634L201.18 532.027Z" fill="#455A64"/>
<path d="M228.356 532.623C255 523.635 237.435 486.829 237.435 486.829L120.951 497.81C109.58 497.959 104.019 503.443 104.019 515.043C104.043 524.588 107.574 532.623 120.914 532.35L228.356 532.623Z" fill="#455A64"/>
<path d="M202.109 492.932C202.109 492.92 201.997 492.92 201.774 492.92C201.526 492.932 201.204 492.932 200.808 492.945C199.916 492.982 198.665 493.031 197.08 493.093C193.797 493.254 189.127 493.489 183.38 493.774C171.774 494.406 155.807 495.285 138.181 496.25C135.976 496.349 133.796 496.547 131.641 496.572C129.486 496.609 127.355 496.696 125.274 496.82C123.193 496.943 121.149 497.104 119.143 497.315C117.161 497.55 115.142 497.761 113.321 498.503C111.5 499.209 109.828 500.261 108.478 501.611C107.128 502.96 106.162 504.619 105.542 506.327C104.91 508.036 104.564 509.757 104.341 511.416C104.13 513.075 104.006 514.684 104.019 516.231C104.031 519.314 104.564 522.112 105.555 524.34C106.533 526.581 107.896 528.215 109.171 529.268C110.46 530.345 111.649 530.877 112.466 531.125C113.296 531.385 113.309 531.298 112.503 531.001C111.711 530.704 110.559 530.147 109.308 529.069C108.069 528.005 106.768 526.383 105.839 524.179C104.91 521.988 104.403 519.24 104.415 516.219C104.415 514.709 104.539 513.112 104.774 511.478C105.01 509.843 105.356 508.147 105.976 506.513C106.595 504.867 107.524 503.294 108.812 502.007C110.113 500.719 111.723 499.729 113.482 499.048C115.241 498.33 117.186 498.132 119.18 497.909C121.174 497.699 123.206 497.55 125.287 497.426C127.367 497.302 129.486 497.216 131.628 497.191C133.784 497.166 135.964 496.968 138.169 496.869C155.807 495.829 171.761 494.888 183.368 494.207C189.115 493.836 193.785 493.539 197.067 493.328C198.653 493.217 199.891 493.118 200.796 493.056C201.192 493.019 201.514 492.994 201.762 492.969C201.997 492.969 202.109 492.945 202.109 492.932Z" fill="#263238"/>
<path d="M228.418 504.335C228.43 504.372 228.108 504.557 227.477 504.805C226.845 505.053 225.866 505.3 224.652 505.387C222.249 505.573 218.595 504.83 215.895 502.081C213.219 499.308 212.563 495.644 212.811 493.242C212.922 492.016 213.195 491.063 213.455 490.432C213.715 489.8 213.913 489.479 213.95 489.503C214.074 489.54 213.368 490.902 213.257 493.279C213.133 495.594 213.839 499.048 216.341 501.636C218.868 504.211 222.299 505.003 224.628 504.929C226.993 504.892 228.381 504.211 228.418 504.335Z" fill="#263238"/>
<path d="M169.16 431.131L158.099 468.94L117.186 473.322V480.577L177.311 481.407L185.486 432.184L169.16 431.131Z" fill="#FFBE9D"/>
<path d="M222.509 391.64C229.768 391.652 249.426 395.353 251.147 408.6C252.708 420.559 255.037 434.128 255.037 434.128L229.161 434.821L237.98 437.148L241.758 492.97L174.796 490.655L178.351 461.958L181.262 433.273L166.633 432.085C166.633 432.085 171.637 407.114 180.37 399.414C180.37 399.414 188.359 392.395 199.644 391.652C210.928 390.897 222.509 391.64 222.509 391.64Z" fill="#E8505B"/>
<path d="M183.665 414.728C183.826 414.74 182.798 424.83 181.386 437.26C179.974 449.689 178.698 459.742 178.537 459.729C178.376 459.717 179.404 449.627 180.816 437.198C182.24 424.768 183.516 414.716 183.665 414.728Z" fill="#263238"/>
<path d="M224.504 391.726C224.516 391.726 224.541 391.887 224.578 392.196C224.603 392.506 224.64 392.964 224.652 393.546C224.677 394.722 224.578 396.455 223.934 398.486C223.315 400.491 222.262 402.93 220.131 404.923C219.091 405.926 217.778 406.792 216.254 407.325C214.731 407.857 213.071 408.068 211.386 408.092C209.702 408.105 208.054 408.043 206.481 407.758C204.908 407.473 203.409 406.916 202.233 406.037C199.854 404.267 198.727 401.791 198.194 399.761C197.637 397.706 197.588 395.972 197.637 394.796C197.662 394.202 197.699 393.756 197.736 393.447C197.773 393.137 197.798 392.976 197.823 392.976C197.86 392.976 197.835 393.633 197.848 394.796C197.86 395.96 197.971 397.656 198.566 399.662C199.123 401.642 200.263 404.007 202.53 405.654C203.657 406.471 205.057 406.991 206.58 407.263C208.104 407.523 209.726 407.597 211.386 407.572C213.034 407.548 214.644 407.35 216.081 406.842C217.518 406.334 218.781 405.517 219.784 404.576C221.841 402.67 222.906 400.343 223.562 398.374C224.256 396.393 224.405 394.697 224.442 393.534C224.479 392.382 224.467 391.726 224.504 391.726Z" fill="#263238"/>
<g opacity="0.2">
<g opacity="0.2">
<g opacity="0.2">
<path opacity="0.2" d="M228.096 414.728C225.618 426.576 222.386 438.745 219.908 450.58C219.376 453.094 218.818 455.706 217.282 457.761C216.316 459.048 215.028 460.051 213.752 461.017C208.872 464.681 203.719 468.111 197.971 470.203C206.258 469.497 214.495 468.073 222.534 465.932C223.897 465.573 225.346 465.127 226.225 464.025C227.006 463.047 227.179 461.747 227.328 460.509C229.099 445.331 228.579 430.017 228.096 414.728Z" fill="black"/>
</g>
</g>
</g>
<path d="M255.458 434.325C255.458 434.363 254.764 434.412 253.513 434.474C252.163 434.524 250.379 434.585 248.212 434.672C243.728 434.808 237.534 434.969 230.697 435.105C229.941 435.118 229.198 435.13 228.505 435.142H228.232L228.22 434.87C227.972 428.519 228.083 422.874 228.207 418.826C228.269 416.795 228.344 415.161 228.418 414.035C228.492 412.908 228.542 412.289 228.579 412.289C228.616 412.289 228.628 412.908 228.628 414.035C228.616 415.248 228.604 416.857 228.591 418.826C228.567 422.874 228.529 428.532 228.789 434.845L228.505 434.573C229.211 434.561 229.954 434.548 230.697 434.523C237.534 434.387 243.728 434.301 248.212 434.264C250.379 434.251 252.176 434.251 253.526 434.251C254.764 434.264 255.458 434.288 255.458 434.325Z" fill="#263238"/>
<path d="M65.942 437.049L88.7954 481.951H160.849L157.938 476.083L137.066 475.464L120.047 437.606C118.994 435.254 116.653 433.744 114.064 433.744H67.9734C66.2764 433.744 65.174 435.539 65.942 437.049Z" fill="#E0E0E0"/>
<path d="M99.2745 459.915C100.8 459.915 102.037 458.679 102.037 457.154C102.037 455.63 100.8 454.394 99.2745 454.394C97.749 454.394 96.5123 455.63 96.5123 457.154C96.5123 458.679 97.749 459.915 99.2745 459.915Z" fill="#263238"/>
<path d="M224.863 357.805L222.286 394.35C221.865 400.318 216.898 404.935 210.916 404.935C204.326 404.935 199.111 399.364 199.545 392.803C199.768 389.324 199.978 386.477 199.978 386.477C199.978 386.477 191.146 385.103 191.023 376.251C190.961 372.079 191.518 363.834 192.137 356.084C192.868 347.034 200.412 340.052 209.503 340.052H209.516C218.707 340.596 225.656 348.619 224.863 357.805Z" fill="#FFBE9D"/>
<path d="M199.916 386.898C199.916 386.898 205.515 387.356 211.448 383.617C211.448 383.617 208.723 389.98 199.891 389.188L199.916 386.898Z" fill="#EB996E"/>
<path d="M194.9 361.828C194.875 362.497 195.42 363.066 196.113 363.103C196.807 363.14 197.389 362.633 197.414 361.964C197.439 361.296 196.894 360.726 196.2 360.689C195.506 360.652 194.924 361.16 194.9 361.828Z" fill="#263238"/>
<path d="M194.107 360.095C194.268 360.256 195.222 359.55 196.584 359.55C197.947 359.538 198.938 360.231 199.086 360.07C199.161 359.996 199 359.699 198.566 359.389C198.132 359.08 197.414 358.77 196.559 358.77C195.717 358.77 194.999 359.092 194.59 359.402C194.169 359.724 194.032 360.021 194.107 360.095Z" fill="#263238"/>
<path d="M207.707 362.2C207.683 362.868 208.228 363.438 208.921 363.475C209.615 363.512 210.197 363.004 210.222 362.336C210.247 361.667 209.702 361.098 209.008 361.061C208.314 361.024 207.732 361.531 207.707 362.2Z" fill="#263238"/>
<path d="M207.472 360.343C207.633 360.504 208.587 359.798 209.949 359.798C211.312 359.786 212.303 360.479 212.451 360.318C212.526 360.244 212.365 359.947 211.931 359.637C211.498 359.328 210.779 359.018 209.925 359.018C209.082 359.018 208.364 359.34 207.955 359.649C207.546 359.971 207.398 360.268 207.472 360.343Z" fill="#263238"/>
<path d="M202.542 370.42C202.555 370.346 201.7 370.197 200.337 370.024C199.99 369.987 199.656 369.925 199.606 369.677C199.52 369.43 199.668 369.058 199.842 368.65C200.164 367.808 200.511 366.929 200.87 366.013C202.294 362.249 203.322 359.154 203.174 359.105C203.025 359.043 201.737 362.051 200.313 365.815C199.966 366.743 199.644 367.622 199.334 368.476C199.198 368.872 198.975 369.318 199.148 369.838C199.247 370.098 199.495 370.284 199.718 370.346C199.941 370.408 200.139 370.42 200.313 370.432C201.687 370.494 202.542 370.507 202.542 370.42Z" fill="#263238"/>
<path d="M206.543 371.361C206.32 371.348 206.32 372.822 205.057 373.874C203.793 374.926 202.22 374.753 202.208 374.963C202.183 375.05 202.555 375.248 203.223 375.273C203.88 375.298 204.821 375.087 205.602 374.443C206.37 373.8 206.704 372.945 206.754 372.339C206.816 371.72 206.642 371.361 206.543 371.361Z" fill="#263238"/>
<path d="M207.125 355.019C207.261 355.391 208.612 355.217 210.209 355.403C211.807 355.564 213.096 356.034 213.306 355.7C213.405 355.539 213.182 355.192 212.662 354.833C212.142 354.474 211.324 354.14 210.37 354.029C209.417 353.93 208.537 354.078 207.955 354.313C207.361 354.549 207.063 354.846 207.125 355.019Z" fill="#263238"/>
<path d="M194.615 356.158C194.85 356.468 195.791 356.146 196.919 356.133C198.046 356.084 199 356.344 199.222 356.022C199.322 355.861 199.173 355.551 198.752 355.267C198.343 354.97 197.649 354.734 196.881 354.759C196.113 354.784 195.432 355.069 195.048 355.378C194.639 355.688 194.503 356.01 194.615 356.158Z" fill="#263238"/>
<path d="M221.878 364.997C222.026 364.935 227.96 363.202 227.761 369.244C227.563 375.285 221.531 373.849 221.531 373.676C221.531 373.502 221.878 364.997 221.878 364.997Z" fill="#FFBE9D"/>
<path d="M223.451 371.447C223.476 371.423 223.55 371.522 223.723 371.608C223.897 371.695 224.194 371.757 224.516 371.645C225.16 371.435 225.73 370.432 225.792 369.343C225.829 368.798 225.73 368.266 225.544 367.82C225.371 367.374 225.098 367.053 224.776 366.991C224.454 366.904 224.219 367.09 224.144 367.263C224.058 367.424 224.095 367.548 224.058 367.56C224.045 367.572 223.934 367.449 223.983 367.201C224.008 367.077 224.083 366.941 224.231 366.83C224.38 366.718 224.59 366.669 224.813 366.694C225.284 366.743 225.68 367.189 225.879 367.671C226.102 368.154 226.225 368.749 226.188 369.368C226.114 370.581 225.445 371.707 224.566 371.93C224.132 372.029 223.785 371.893 223.612 371.745C223.463 371.596 223.438 371.46 223.451 371.447Z" fill="#EB996E"/>
<path d="M168.528 482.026H80.4468V486.321H168.528V482.026Z" fill="#263238"/>
<path d="M141.402 484.18L168.194 532.623H192.187L168.528 486.322L141.402 484.18Z" fill="#263238"/>
<path d="M168.541 486.322C168.541 486.495 148.796 486.742 124.457 486.866C100.104 486.99 80.3601 486.941 80.3601 486.767C80.3601 486.594 100.092 486.346 124.457 486.223C148.796 486.099 168.528 486.148 168.541 486.322Z" fill="#455A64"/>
<path d="M189.685 352.122C191.295 352.729 193.165 352.605 194.664 351.763C194.033 352.283 194.255 353.373 194.9 353.88C195.544 354.375 196.423 354.425 197.241 354.4C201.588 354.252 205.862 352.419 208.983 349.386C209.02 350.921 210.247 352.234 211.684 352.754C213.12 353.274 214.718 353.125 216.205 352.766C215.808 355.019 215.412 357.359 215.92 359.587C216.428 361.828 218.087 363.958 220.367 364.304C220.825 365.418 220.565 366.681 220.651 367.882C220.738 369.083 221.432 370.457 222.646 370.494C223.711 370.519 224.504 369.442 224.64 368.39C224.776 367.337 224.157 365.196 224.912 363.487C225.73 361.643 225.408 361.977 226.213 360.132C227.031 358.288 227.489 355.737 228.121 353.818C228.752 351.899 229 349.758 228.282 347.876C227.563 345.994 225.68 344.459 223.661 344.595C224.392 342.701 223.785 340.361 222.212 339.074C220.639 337.786 218.224 337.638 216.514 338.74C216.514 338.74 209.615 334.06 201.997 336.647C194.429 339.222 193.24 346.143 191.592 346.366C189.933 346.576 184.904 343.853 185.771 345.573C186.638 347.294 188.075 348.953 188.793 349.027C189.511 349.102 183.033 346.366 185.263 348.817C187.492 351.219 189.685 352.122 189.685 352.122Z" fill="#263238"/>
<path d="M250.404 411.051C250.33 411.113 249.748 410.011 248.014 408.748C246.317 407.486 243.344 406.198 239.516 406.248C235.689 406.235 231.292 407.894 226.993 410.531C222.633 413.106 218.261 416.733 212.786 419.11C210.061 420.299 207.162 420.98 204.351 421.017C201.539 421.079 198.826 420.584 196.398 419.705C193.971 418.826 191.852 417.501 190.069 416.102C188.26 414.703 186.687 413.317 185.139 412.19C182.092 409.863 179.032 408.897 176.902 408.835C174.759 408.773 173.644 409.367 173.632 409.268C173.632 409.256 173.694 409.219 173.83 409.169C173.966 409.12 174.164 409.008 174.437 408.946C174.982 408.761 175.824 408.6 176.914 408.587C179.094 408.575 182.265 409.516 185.411 411.831C188.582 414.022 191.815 417.501 196.609 419.16C201.328 420.881 207.224 420.943 212.551 418.529C217.902 416.201 222.287 412.611 226.709 410.023C231.069 407.387 235.59 405.715 239.541 405.789C243.468 405.802 246.503 407.201 248.187 408.55C249.054 409.219 249.599 409.863 249.958 410.321C250.268 410.791 250.429 411.039 250.404 411.051Z" fill="#FAFAFA"/>
<path d="M228.368 443.598C228.331 443.648 227.774 443.202 226.659 442.571C225.557 441.939 223.872 441.122 221.642 440.639C219.438 440.157 216.663 440.008 213.764 440.776C210.841 441.506 207.856 443.029 204.536 444.254C202.877 444.861 201.18 445.319 199.507 445.53C197.835 445.74 196.213 445.752 194.677 445.616C191.605 445.344 188.929 444.465 186.836 443.474C184.73 442.484 183.207 441.345 182.24 440.491C181.733 440.082 181.398 439.711 181.163 439.463C180.927 439.216 180.816 439.08 180.828 439.067C180.865 439.018 181.386 439.513 182.401 440.293C183.405 441.073 184.941 442.137 187.034 443.053C189.115 443.982 191.741 444.787 194.739 445.022C197.736 445.27 201.068 444.886 204.326 443.648C207.584 442.447 210.606 440.912 213.628 440.194C216.638 439.426 219.499 439.624 221.754 440.181C224.021 440.738 225.718 441.63 226.795 442.335C227.34 442.694 227.737 442.992 227.997 443.214C228.257 443.462 228.381 443.586 228.368 443.598Z" fill="#FAFAFA"/>
<path d="M238.117 464.409C238.079 464.483 237.299 463.988 235.726 463.654C234.153 463.32 231.762 463.344 229.012 464.26C227.638 464.706 226.176 465.313 224.665 466.117C223.154 466.91 221.58 467.851 219.883 468.767C218.174 469.683 216.328 470.587 214.272 471.181C212.216 471.763 209.925 471.936 207.695 471.453C203.211 470.475 199.656 467.888 196.386 465.932C193.128 463.926 189.92 462.465 187.046 462.267C184.173 462.032 181.856 462.812 180.519 463.666C179.144 464.52 178.648 465.325 178.586 465.263C178.574 465.251 178.698 465.065 178.958 464.718C179.243 464.397 179.676 463.914 180.37 463.456C181.708 462.502 184.086 461.623 187.071 461.809C190.069 461.958 193.388 463.431 196.683 465.424C200.003 467.368 203.521 469.893 207.819 470.822C209.949 471.28 212.117 471.131 214.099 470.574C216.081 470.017 217.902 469.138 219.599 468.247C221.296 467.355 222.881 466.427 224.417 465.635C225.953 464.842 227.464 464.248 228.876 463.815C231.7 462.936 234.19 462.985 235.788 463.406C236.593 463.617 237.188 463.864 237.559 464.062C237.931 464.273 238.129 464.384 238.117 464.409Z" fill="#FAFAFA"/>
<path d="M241.275 488.067C241.275 488.079 241.077 488.191 240.643 488.327C240.222 488.463 239.566 488.612 238.724 488.649C237.027 488.773 234.562 488.277 231.75 487.188C230.338 486.68 228.814 486.074 227.117 485.678C225.42 485.319 223.562 485.182 221.605 485.368C217.691 485.702 213.566 487.176 209.157 488.438C206.952 489.07 204.747 489.577 202.567 489.788C200.387 490.011 198.281 489.936 196.287 489.701C192.311 489.194 188.867 488.067 186.068 486.978C183.268 485.876 181.076 484.799 179.59 484.043C178.846 483.66 178.264 483.35 177.88 483.14C177.496 482.929 177.298 482.806 177.31 482.781C177.323 482.756 177.533 482.843 177.942 483.028C178.413 483.239 178.995 483.499 179.701 483.821C181.225 484.514 183.429 485.517 186.241 486.557C189.041 487.597 192.459 488.649 196.361 489.119C198.318 489.342 200.387 489.392 202.505 489.169C204.623 488.958 206.791 488.451 208.983 487.832C213.356 486.581 217.53 485.096 221.556 484.786C223.562 484.613 225.495 484.774 227.241 485.17C228.988 485.603 230.511 486.235 231.911 486.767C234.686 487.894 237.051 488.438 238.711 488.401C240.383 488.377 241.263 487.993 241.275 488.067Z" fill="#FAFAFA"/>
<path d="M253.984 428.074C254.009 428.098 253.773 428.42 253.228 428.878C252.696 429.336 251.841 429.943 250.677 430.438C249.5 430.921 248.001 431.317 246.304 431.28C244.607 431.28 242.762 430.735 241.04 429.893C239.306 429.064 237.745 428.16 236.221 427.616C234.71 427.083 233.236 426.972 232.035 427.145C230.833 427.318 229.954 427.801 229.434 428.222C228.913 428.655 228.703 428.99 228.653 428.953C228.628 428.94 228.777 428.556 229.273 428.036C229.768 427.529 230.697 426.935 231.973 426.687C233.236 426.439 234.809 426.501 236.432 427.046C238.03 427.578 239.64 428.482 241.337 429.299C243.034 430.129 244.731 430.649 246.341 430.686C247.952 430.748 249.389 430.426 250.528 430.005C252.807 429.126 253.897 427.962 253.984 428.074Z" fill="#FAFAFA"/>
<path d="M182.042 427.455C182.067 427.479 181.956 427.665 181.646 427.888C181.336 428.111 180.779 428.309 180.085 428.296C179.404 428.296 178.574 428.086 177.794 427.64C177.013 427.207 176.27 426.613 175.453 426.093C173.867 425.003 172.046 424.917 170.82 425.152C169.581 425.375 168.9 425.833 168.838 425.734C168.788 425.684 169.408 425.078 170.708 424.706C171.972 424.322 174.053 424.36 175.787 425.536C176.642 426.093 177.36 426.687 178.078 427.12C178.772 427.554 179.491 427.777 180.098 427.838C181.361 427.987 181.993 427.356 182.042 427.455Z" fill="#FAFAFA"/>
<path d="M148.4 467.43L166.423 465.263L179.119 473.582L227.687 461.945L229.112 434.858L250.912 434.325L250.404 466.105C250.194 476.343 241.672 484.44 231.44 484.155L160.316 482.187L157.294 476.133L142.033 475.675L148.4 467.43Z" fill="#FFBE9D"/>
<path d="M227.068 461.958C227.068 461.982 226.758 462.069 226.151 462.23C225.495 462.403 224.615 462.626 223.513 462.923C221.159 463.505 217.84 464.335 213.764 465.35C205.478 467.355 194.119 470.104 181.559 473.149C180.556 473.384 179.553 473.632 178.562 473.867L178.438 473.892L178.339 473.83C173.842 470.884 169.569 468.061 165.655 465.486L165.828 465.523C158.693 466.352 152.525 467.058 147.793 467.603L147.917 467.541C145.898 470.104 144.3 472.134 143.16 473.582C142.628 474.251 142.194 474.771 141.872 475.167C141.575 475.526 141.414 475.699 141.402 475.699C141.389 475.687 141.525 475.489 141.798 475.118C142.095 474.709 142.504 474.164 143.012 473.471C144.114 471.998 145.687 469.93 147.644 467.33L147.694 467.269L147.768 467.256C152.488 466.662 158.656 465.894 165.779 465.003L165.878 464.991L165.952 465.04C169.879 467.603 174.164 470.401 178.661 473.347L178.438 473.31C179.429 473.075 180.42 472.84 181.435 472.592C194.008 469.621 205.379 466.922 213.678 464.954C217.765 464.013 221.097 463.245 223.463 462.7C224.578 462.453 225.47 462.255 226.126 462.118C226.733 461.995 227.055 461.933 227.068 461.958Z" fill="#EB996E"/>
<path d="M158.247 472.592C158.247 472.753 155.114 472.877 151.249 472.877C150.815 472.877 150.382 472.877 149.973 472.877L150.159 472.815C147.657 474.907 145.712 476.417 145.625 476.306C145.539 476.207 147.335 474.523 149.8 472.394L149.874 472.332H149.973C150.394 472.332 150.815 472.332 151.249 472.332C155.114 472.307 158.247 472.431 158.247 472.592Z" fill="#EB996E"/>
<path d="M236.011 467.38C235.862 467.467 234.921 465.201 232.468 463.691C230.041 462.131 227.588 462.28 227.613 462.094C227.6 462.032 228.207 461.896 229.186 461.97C230.164 462.044 231.502 462.403 232.778 463.208C234.054 464.013 234.958 465.065 235.454 465.907C235.937 466.761 236.073 467.355 236.011 467.38Z" fill="#EB996E"/>
</svg>
