<svg width="50" height="50" viewBox="0 0 50 50" fill="none" xmlns="http://www.w3.org/2000/svg">
<circle cx="25" cy="25" r="25" fill="#03A9F4"/>
<g clip-path="url(#clip0)">
<path d="M37.7404 17.0914C36.8018 17.5031 35.8016 17.776 34.7589 17.9085C35.8316 17.2681 36.6503 16.2616 37.0352 15.0485C36.0351 15.6448 34.9308 16.066 33.754 16.301C32.8043 15.2899 31.4508 14.6636 29.9742 14.6636C27.1094 14.6636 24.8031 16.9888 24.8031 19.8394C24.8031 20.2496 24.8378 20.644 24.923 21.0194C20.6211 20.8096 16.8145 18.7478 14.2574 15.6069C13.8109 16.3815 13.5491 17.2681 13.5491 18.2225C13.5491 20.0145 14.4719 21.6031 15.8475 22.5228C15.0162 22.507 14.2006 22.2657 13.5096 21.8855C13.5096 21.9013 13.5096 21.9218 13.5096 21.9423C13.5096 24.4568 15.3033 26.5455 17.6553 27.0266C17.2341 27.1418 16.7751 27.197 16.2987 27.197C15.9674 27.197 15.633 27.1781 15.319 27.1087C15.9895 29.1579 17.892 30.6644 20.1541 30.7133C18.3936 32.0905 16.1583 32.9203 13.7384 32.9203C13.314 32.9203 12.907 32.9013 12.5 32.8493C14.7921 34.3274 17.5086 35.1714 20.4381 35.1714C29.96 35.1714 35.1659 27.2838 35.1659 20.4468C35.1659 20.218 35.158 19.9972 35.1469 19.7779C36.1739 19.0491 37.0368 18.1389 37.7404 17.0914Z" fill="white"/>
</g>
<defs>
<clipPath id="clip0">
<rect x="12.2596" y="12.2598" width="25.2404" height="25.2404" fill="white"/>
</clipPath>
</defs>
</svg>
